<svg xmlns="http://www.w3.org/2000/svg" xmlns:xlink="http://www.w3.org/1999/xlink" width="1366" zoomAndPan="magnify" viewBox="0 0 1024.5 576" height="768" preserveAspectRatio="xMidYMid meet" version="1.0"><defs><filter x="0%" y="0%" width="100%" height="100%" id="777053715c"><feColorMatrix values="0 0 0 0 1 0 0 0 0 1 0 0 0 0 1 0 0 0 1 0" color-interpolation-filters="sRGB"/></filter><clipPath id="03d403eb68"><path d="M 0 0.140625 L 1024 0.140625 L 1024 575.859375 L 0 575.859375 Z M 0 0.140625 " clip-rule="nonzero"/></clipPath><clipPath id="5588e03329"><path d="M 0 0.140625 L 81 0.140625 L 81 81 L 0 81 Z M 0 0.140625 " clip-rule="nonzero"/></clipPath><mask id="e85de742af"><g filter="url(#777053715c)"><rect x="-102.45" width="1229.4" fill="#000000" y="-57.6" height="691.2" fill-opacity="0.27"/></g></mask><clipPath id="9362bb00b9"><path d="M 0 0.140625 L 80.378906 0.140625 L 80.378906 80.519531 L 0 80.519531 Z M 0 0.140625 " clip-rule="nonzero"/></clipPath><clipPath id="efbbaf5c3b"><rect x="0" width="81" y="0" height="81"/></clipPath><clipPath id="eb127fe893"><path d="M 122 0.140625 L 223 0.140625 L 223 103 L 122 103 Z M 122 0.140625 " clip-rule="nonzero"/></clipPath><mask id="19f719a295"><g filter="url(#777053715c)"><rect x="-102.45" width="1229.4" fill="#000000" y="-57.6" height="691.2" fill-opacity="0.15"/></g></mask><clipPath id="1fe50b9f3a"><path d="M 0.671875 0.140625 L 100.710938 0.140625 L 100.710938 102.148438 L 0.671875 102.148438 Z M 0.671875 0.140625 " clip-rule="nonzero"/></clipPath><clipPath id="23f81d0b47"><rect x="0" width="101" y="0" height="103"/></clipPath><mask id="a08ebd7f06"><g filter="url(#777053715c)"><rect x="-102.45" width="1229.4" fill="#000000" y="-57.6" height="691.2" fill-opacity="0.11"/></g></mask><clipPath id="804a4abe37"><path d="M 0 0.285156 L 86.394531 0.285156 L 86.394531 92.695312 L 0 92.695312 Z M 0 0.285156 " clip-rule="nonzero"/></clipPath><clipPath id="c69611b1bf"><rect x="0" width="87" y="0" height="93"/></clipPath><mask id="d8e30b9336"><g filter="url(#777053715c)"><rect x="-102.45" width="1229.4" fill="#000000" y="-57.6" height="691.2" fill-opacity="0.14"/></g></mask><clipPath id="6458a024ac"><path d="M 0.421875 0.519531 L 71.007812 0.519531 L 71.007812 67.96875 L 0.421875 67.96875 Z M 0.421875 0.519531 " clip-rule="nonzero"/></clipPath><clipPath id="145befc4c6"><rect x="0" width="72" y="0" height="69"/></clipPath><mask id="af51136e21"><g filter="url(#777053715c)"><rect x="-102.45" width="1229.4" fill="#000000" y="-57.6" height="691.2" fill-opacity="0.18"/></g></mask><clipPath id="28dbef031b"><path d="M 0.742188 0.753906 L 53.316406 0.753906 L 53.316406 53.328125 L 0.742188 53.328125 Z M 0.742188 0.753906 " clip-rule="nonzero"/></clipPath><clipPath id="b6f9117fa9"><rect x="0" width="54" y="0" height="54"/></clipPath><mask id="795e205b59"><g filter="url(#777053715c)"><rect x="-102.45" width="1229.4" fill="#000000" y="-57.6" height="691.2" fill-opacity="0.31"/></g></mask><clipPath id="bcf8746c90"><path d="M 0.144531 0.183594 L 62.4375 0.183594 L 62.4375 62.476562 L 0.144531 62.476562 Z M 0.144531 0.183594 " clip-rule="nonzero"/></clipPath><clipPath id="42f1025a47"><rect x="0" width="63" y="0" height="63"/></clipPath><mask id="f44df5d24a"><g filter="url(#777053715c)"><rect x="-102.45" width="1229.4" fill="#000000" y="-57.6" height="691.2" fill-opacity="0.05"/></g></mask><clipPath id="4f3656b607"><path d="M 0.886719 0.632812 L 33.953125 0.632812 L 33.953125 33.695312 L 0.886719 33.695312 Z M 0.886719 0.632812 " clip-rule="nonzero"/></clipPath><clipPath id="bad435eedf"><rect x="0" width="35" y="0" height="34"/></clipPath><mask id="06251f435e"><g filter="url(#777053715c)"><rect x="-102.45" width="1229.4" fill="#000000" y="-57.6" height="691.2" fill-opacity="0.05"/></g></mask><clipPath id="6c25697261"><path d="M 1.109375 1.078125 L 22.175781 1.078125 L 22.175781 22.148438 L 1.109375 22.148438 Z M 1.109375 1.078125 " clip-rule="nonzero"/></clipPath><clipPath id="cb2722bca0"><rect x="0" width="23" y="0" height="23"/></clipPath><clipPath id="aabf4a809a"><path d="M 251 0.140625 L 305 0.140625 L 305 36 L 251 36 Z M 251 0.140625 " clip-rule="nonzero"/></clipPath><mask id="8e0a3666f0"><g filter="url(#777053715c)"><rect x="-102.45" width="1229.4" fill="#000000" y="-57.6" height="691.2" fill-opacity="0.23"/></g></mask><clipPath id="5117fcb6e2"><path d="M 0.410156 0.140625 L 52.984375 0.140625 L 52.984375 35.472656 L 0.410156 35.472656 Z M 0.410156 0.140625 " clip-rule="nonzero"/></clipPath><clipPath id="13ee4ea378"><rect x="0" width="54" y="0" height="36"/></clipPath><mask id="b1072f0c20"><g filter="url(#777053715c)"><rect x="-102.45" width="1229.4" fill="#000000" y="-57.6" height="691.2" fill-opacity="0.05"/></g></mask><clipPath id="64018d52cd"><path d="M 0.476562 0.898438 L 17.050781 0.898438 L 17.050781 17.472656 L 0.476562 17.472656 Z M 0.476562 0.898438 " clip-rule="nonzero"/></clipPath><clipPath id="afa8dcc612"><rect x="0" width="18" y="0" height="18"/></clipPath><clipPath id="846b7bd4d2"><path d="M 801 0.140625 L 882 0.140625 L 882 82 L 801 82 Z M 801 0.140625 " clip-rule="nonzero"/></clipPath><mask id="c59ff7a05d"><g filter="url(#777053715c)"><rect x="-102.45" width="1229.4" fill="#000000" y="-57.6" height="691.2" fill-opacity="0.27"/></g></mask><clipPath id="fa5307d729"><path d="M 0.289062 0.699219 L 80.667969 0.699219 L 80.667969 81.078125 L 0.289062 81.078125 Z M 0.289062 0.699219 " clip-rule="nonzero"/></clipPath><clipPath id="2cc3e0fac5"><rect x="0" width="81" y="0" height="82"/></clipPath><clipPath id="41ec9f13fa"><path d="M 923 0.140625 L 1024 0.140625 L 1024 112 L 923 112 Z M 923 0.140625 " clip-rule="nonzero"/></clipPath><mask id="b04589770d"><g filter="url(#777053715c)"><rect x="-102.45" width="1229.4" fill="#000000" y="-57.6" height="691.2" fill-opacity="0.15"/></g></mask><clipPath id="6c0869670e"><path d="M 0.960938 0.140625 L 101 0.140625 L 101 111.753906 L 0.960938 111.753906 Z M 0.960938 0.140625 " clip-rule="nonzero"/></clipPath><clipPath id="c8ead61f07"><rect x="0" width="101" y="0" height="112"/></clipPath><mask id="87e2b9f11e"><g filter="url(#777053715c)"><rect x="-102.45" width="1229.4" fill="#000000" y="-57.6" height="691.2" fill-opacity="0.07"/></g></mask><clipPath id="52a6164335"><path d="M 0.273438 0.890625 L 92.683594 0.890625 L 92.683594 93.300781 L 0.273438 93.300781 Z M 0.273438 0.890625 " clip-rule="nonzero"/></clipPath><clipPath id="f787461126"><rect x="0" width="93" y="0" height="94"/></clipPath><mask id="e8b3324d0d"><g filter="url(#777053715c)"><rect x="-102.45" width="1229.4" fill="#000000" y="-57.6" height="691.2" fill-opacity="0.26"/></g></mask><clipPath id="ebb0436590"><path d="M 0.707031 0.125 L 71.296875 0.125 L 71.296875 67.570312 L 0.707031 67.570312 Z M 0.707031 0.125 " clip-rule="nonzero"/></clipPath><clipPath id="1066cdac40"><rect x="0" width="72" y="0" height="68"/></clipPath><mask id="84998edcf9"><g filter="url(#777053715c)"><rect x="-102.45" width="1229.4" fill="#000000" y="-57.6" height="691.2" fill-opacity="0.24"/></g></mask><clipPath id="5d7a63ebfc"><path d="M 1.03125 0.355469 L 53.605469 0.355469 L 53.605469 52.933594 L 1.03125 52.933594 Z M 1.03125 0.355469 " clip-rule="nonzero"/></clipPath><clipPath id="9ca9c77210"><rect x="0" width="54" y="0" height="54"/></clipPath><mask id="07cfa08f73"><g filter="url(#777053715c)"><rect x="-102.45" width="1229.4" fill="#000000" y="-57.6" height="691.2" fill-opacity="0.41"/></g></mask><clipPath id="9d6cc95b28"><path d="M 0.433594 0.789062 L 62.726562 0.789062 L 62.726562 63.078125 L 0.433594 63.078125 Z M 0.433594 0.789062 " clip-rule="nonzero"/></clipPath><clipPath id="20b2744871"><rect x="0" width="63" y="0" height="64"/></clipPath><mask id="9c75cd2b82"><g filter="url(#777053715c)"><rect x="-102.45" width="1229.4" fill="#000000" y="-57.6" height="691.2" fill-opacity="0.26"/></g></mask><clipPath id="9dff53fc78"><path d="M 0.765625 1.164062 L 33.828125 1.164062 L 33.828125 34.226562 L 0.765625 34.226562 Z M 0.765625 1.164062 " clip-rule="nonzero"/></clipPath><clipPath id="5fdfa2c5e3"><rect x="0" width="34" y="0" height="35"/></clipPath><mask id="b24671fd45"><g filter="url(#777053715c)"><rect x="-102.45" width="1229.4" fill="#000000" y="-57.6" height="691.2" fill-opacity="0.05"/></g></mask><clipPath id="46e37e4cb5"><path d="M 0.394531 0.683594 L 21.464844 0.683594 L 21.464844 21.753906 L 0.394531 21.753906 Z M 0.394531 0.683594 " clip-rule="nonzero"/></clipPath><clipPath id="95a047e747"><rect x="0" width="22" y="0" height="22"/></clipPath><clipPath id="37ab3fe57c"><path d="M 728 0.140625 L 782 0.140625 L 782 41 L 728 41 Z M 728 0.140625 " clip-rule="nonzero"/></clipPath><mask id="e8f08ca812"><g filter="url(#777053715c)"><rect x="-102.45" width="1229.4" fill="#000000" y="-57.6" height="691.2" fill-opacity="0.14"/></g></mask><clipPath id="438064afbe"><path d="M 0.476562 0.140625 L 53.054688 0.140625 L 53.054688 40.332031 L 0.476562 40.332031 Z M 0.476562 0.140625 " clip-rule="nonzero"/></clipPath><clipPath id="85b66e7ddd"><rect x="0" width="54" y="0" height="41"/></clipPath><mask id="2daba21285"><g filter="url(#777053715c)"><rect x="-102.45" width="1229.4" fill="#000000" y="-57.6" height="691.2" fill-opacity="0.05"/></g></mask><clipPath id="45dd15e34e"><path d="M 0.480469 0.425781 L 17.054688 0.425781 L 17.054688 17 L 0.480469 17 Z M 0.480469 0.425781 " clip-rule="nonzero"/></clipPath><clipPath id="5f2a2f91b7"><rect x="0" width="18" y="0" height="18"/></clipPath><mask id="49d431db85"><g filter="url(#777053715c)"><rect x="-102.45" width="1229.4" fill="#000000" y="-57.6" height="691.2" fill-opacity="0.23"/></g></mask><clipPath id="b0cfd746a0"><path d="M 0 0.226562 L 27.046875 0.226562 L 27.046875 33.292969 L 0 33.292969 Z M 0 0.226562 " clip-rule="nonzero"/></clipPath><clipPath id="fb02ad6737"><rect x="0" width="28" y="0" height="34"/></clipPath><mask id="097dc1e5e1"><g filter="url(#777053715c)"><rect x="-102.45" width="1229.4" fill="#000000" y="-57.6" height="691.2" fill-opacity="0.2"/></g></mask><clipPath id="2127aa8445"><path d="M 0.851562 0.941406 L 53.429688 0.941406 L 53.429688 53.515625 L 0.851562 53.515625 Z M 0.851562 0.941406 " clip-rule="nonzero"/></clipPath><clipPath id="d99f0e3e73"><rect x="0" width="54" y="0" height="54"/></clipPath><mask id="167db7ac24"><g filter="url(#777053715c)"><rect x="-102.45" width="1229.4" fill="#000000" y="-57.6" height="691.2" fill-opacity="0.05"/></g></mask><clipPath id="a255ab2457"><path d="M 0.925781 0.757812 L 17.5 0.757812 L 17.5 17.328125 L 0.925781 17.328125 Z M 0.925781 0.757812 " clip-rule="nonzero"/></clipPath><clipPath id="c26365b767"><rect x="0" width="18" y="0" height="18"/></clipPath></defs><g clip-path="url(#03d403eb68)"><path fill="#ffffff" d="M 0 0.140625 L 1024 0.140625 L 1024 575.859375 L 0 575.859375 Z M 0 0.140625 " fill-opacity="1" fill-rule="nonzero"/><path fill="#b6e4ff" d="M 0 0.140625 L 1024 0.140625 L 1024 575.859375 L 0 575.859375 Z M 0 0.140625 " fill-opacity="1" fill-rule="nonzero"/></g><g clip-path="url(#5588e03329)"><g mask="url(#e85de742af)"><g transform="matrix(1, 0, 0, 1, 0, 0.000000000000055289)"><g clip-path="url(#efbbaf5c3b)"><g clip-path="url(#9362bb00b9)"><path fill="#86b8d5" d="M 0 0.140625 L 80.378906 0.140625 L 80.378906 80.519531 L 0 80.519531 Z M 0 0.140625 " fill-opacity="1" fill-rule="nonzero"/></g></g></g></g></g><g clip-path="url(#eb127fe893)"><g mask="url(#19f719a295)"><g transform="matrix(1, 0, 0, 1, 122, 0.000000000000055289)"><g clip-path="url(#23f81d0b47)"><g clip-path="url(#1fe50b9f3a)"><path fill="#136fa5" d="M 0.671875 -9.460938 L 100.710938 -9.460938 L 100.710938 102.300781 L 0.671875 102.300781 Z M 0.671875 -9.460938 " fill-opacity="1" fill-rule="nonzero"/></g></g></g></g></g><g mask="url(#a08ebd7f06)"><g transform="matrix(1, 0, 0, 1, 0, 94)"><g clip-path="url(#c69611b1bf)"><g clip-path="url(#804a4abe37)"><path fill="#1882c0" d="M -6.015625 0.285156 L 86.394531 0.285156 L 86.394531 92.695312 L -6.015625 92.695312 Z M -6.015625 0.285156 " fill-opacity="1" fill-rule="nonzero"/></g></g></g></g><g mask="url(#d8e30b9336)"><g transform="matrix(1, 0, 0, 1, 133, 80)"><g clip-path="url(#145befc4c6)"><g clip-path="url(#6458a024ac)"><path fill="#86b8d5" d="M 0.421875 0.519531 L 71.03125 0.519531 L 71.03125 67.96875 L 0.421875 67.96875 Z M 0.421875 0.519531 " fill-opacity="1" fill-rule="nonzero"/></g></g></g></g><g mask="url(#af51136e21)"><g transform="matrix(1, 0, 0, 1, 52, 111)"><g clip-path="url(#b6f9117fa9)"><g clip-path="url(#28dbef031b)"><path fill="#86b8d5" d="M 0.742188 0.753906 L 53.316406 0.753906 L 53.316406 53.328125 L 0.742188 53.328125 Z M 0.742188 0.753906 " fill-opacity="1" fill-rule="nonzero"/></g></g></g></g><g mask="url(#795e205b59)"><g transform="matrix(1, 0, 0, 1, 94, 9)"><g clip-path="url(#42f1025a47)"><g clip-path="url(#bcf8746c90)"><path fill="#86b8d5" d="M 0.144531 0.183594 L 62.4375 0.183594 L 62.4375 62.476562 L 0.144531 62.476562 Z M 0.144531 0.183594 " fill-opacity="1" fill-rule="nonzero"/></g></g></g></g><g mask="url(#f44df5d24a)"><g transform="matrix(1, 0, 0, 1, 116, 153)"><g clip-path="url(#bad435eedf)"><g clip-path="url(#4f3656b607)"><path fill="#b6e4ff" d="M 0.886719 0.632812 L 33.953125 0.632812 L 33.953125 33.695312 L 0.886719 33.695312 Z M 0.886719 0.632812 " fill-opacity="1" fill-rule="nonzero"/></g></g></g></g><g mask="url(#06251f435e)"><g transform="matrix(1, 0, 0, 1, 90, 80)"><g clip-path="url(#cb2722bca0)"><g clip-path="url(#6c25697261)"><path fill="#b6e4ff" d="M 1.109375 1.078125 L 22.175781 1.078125 L 22.175781 22.148438 L 1.109375 22.148438 Z M 1.109375 1.078125 " fill-opacity="1" fill-rule="nonzero"/></g></g></g></g><g clip-path="url(#aabf4a809a)"><g mask="url(#8e0a3666f0)"><g transform="matrix(1, 0, 0, 1, 251, 0.000000000000055289)"><g clip-path="url(#13ee4ea378)"><g clip-path="url(#5117fcb6e2)"><path fill="#86b8d5" d="M 0.410156 -17.105469 L 52.984375 -17.105469 L 52.984375 35.472656 L 0.410156 35.472656 Z M 0.410156 -17.105469 " fill-opacity="1" fill-rule="nonzero"/></g></g></g></g></g><g mask="url(#b1072f0c20)"><g transform="matrix(1, 0, 0, 1, 317, 18)"><g clip-path="url(#afa8dcc612)"><g clip-path="url(#64018d52cd)"><path fill="#b6e4ff" d="M 0.476562 0.898438 L 17.050781 0.898438 L 17.050781 17.472656 L 0.476562 17.472656 Z M 0.476562 0.898438 " fill-opacity="1" fill-rule="nonzero"/></g></g></g></g><g clip-path="url(#846b7bd4d2)"><g mask="url(#c59ff7a05d)"><g transform="matrix(1, 0, 0, 1, 801, 0.000000000000055178)"><g clip-path="url(#2cc3e0fac5)"><g clip-path="url(#fa5307d729)"><path fill="#86b8d5" d="M 0.289062 0.699219 L 80.667969 0.699219 L 80.667969 81.078125 L 0.289062 81.078125 Z M 0.289062 0.699219 " fill-opacity="1" fill-rule="nonzero"/></g></g></g></g></g><g clip-path="url(#41ec9f13fa)"><g mask="url(#b04589770d)"><g transform="matrix(1, 0, 0, 1, 923, 0.000000000000055289)"><g clip-path="url(#c8ead61f07)"><g clip-path="url(#6c0869670e)"><path fill="#136fa5" d="M 0.960938 0.140625 L 101 0.140625 L 101 111.902344 L 0.960938 111.902344 Z M 0.960938 0.140625 " fill-opacity="1" fill-rule="nonzero"/></g></g></g></g></g><g mask="url(#87e2b9f11e)"><g transform="matrix(1, 0, 0, 1, 795, 103)"><g clip-path="url(#f787461126)"><g clip-path="url(#52a6164335)"><path fill="#1882c0" d="M 0.273438 0.890625 L 92.683594 0.890625 L 92.683594 93.300781 L 0.273438 93.300781 Z M 0.273438 0.890625 " fill-opacity="1" fill-rule="nonzero"/></g></g></g></g><g mask="url(#e8b3324d0d)"><g transform="matrix(1, 0, 0, 1, 934, 90)"><g clip-path="url(#1066cdac40)"><g clip-path="url(#ebb0436590)"><path fill="#86b8d5" d="M 0.707031 0.125 L 71.320312 0.125 L 71.320312 67.570312 L 0.707031 67.570312 Z M 0.707031 0.125 " fill-opacity="1" fill-rule="nonzero"/></g></g></g></g><g mask="url(#84998edcf9)"><g transform="matrix(1, 0, 0, 1, 853, 121)"><g clip-path="url(#9ca9c77210)"><g clip-path="url(#5d7a63ebfc)"><path fill="#86b8d5" d="M 1.03125 0.355469 L 53.605469 0.355469 L 53.605469 52.933594 L 1.03125 52.933594 Z M 1.03125 0.355469 " fill-opacity="1" fill-rule="nonzero"/></g></g></g></g><g mask="url(#07cfa08f73)"><g transform="matrix(1, 0, 0, 1, 895, 18)"><g clip-path="url(#20b2744871)"><g clip-path="url(#9d6cc95b28)"><path fill="#86b8d5" d="M 0.433594 0.789062 L 62.726562 0.789062 L 62.726562 63.078125 L 0.433594 63.078125 Z M 0.433594 0.789062 " fill-opacity="1" fill-rule="nonzero"/></g></g></g></g><g mask="url(#9c75cd2b82)"><g transform="matrix(1, 0, 0, 1, 988, 169)"><g clip-path="url(#5fdfa2c5e3)"><g clip-path="url(#9dff53fc78)"><path fill="#86b8d5" d="M 0.765625 1.164062 L 33.828125 1.164062 L 33.828125 34.226562 L 0.765625 34.226562 Z M 0.765625 1.164062 " fill-opacity="1" fill-rule="nonzero"/></g></g></g></g><g mask="url(#b24671fd45)"><g transform="matrix(1, 0, 0, 1, 892, 90)"><g clip-path="url(#95a047e747)"><g clip-path="url(#46e37e4cb5)"><path fill="#b6e4ff" d="M 0.394531 0.683594 L 21.464844 0.683594 L 21.464844 21.753906 L 0.394531 21.753906 Z M 0.394531 0.683594 " fill-opacity="1" fill-rule="nonzero"/></g></g></g></g><g clip-path="url(#37ab3fe57c)"><g mask="url(#e8f08ca812)"><g transform="matrix(1, 0, 0, 1, 728, 0.000000000000055289)"><g clip-path="url(#85b66e7ddd)"><g clip-path="url(#438064afbe)"><path fill="#86b8d5" d="M 0.476562 -12.246094 L 53.054688 -12.246094 L 53.054688 40.332031 L 0.476562 40.332031 Z M 0.476562 -12.246094 " fill-opacity="1" fill-rule="nonzero"/></g></g></g></g></g><g mask="url(#2daba21285)"><g transform="matrix(1, 0, 0, 1, 764, 49)"><g clip-path="url(#5f2a2f91b7)"><g clip-path="url(#45dd15e34e)"><path fill="#b6e4ff" d="M 0.480469 0.425781 L 17.054688 0.425781 L 17.054688 17 L 0.480469 17 Z M 0.480469 0.425781 " fill-opacity="1" fill-rule="nonzero"/></g></g></g></g><g mask="url(#49d431db85)"><g transform="matrix(1, 0, 0, 1, 0, 203)"><g clip-path="url(#fb02ad6737)"><g clip-path="url(#b0cfd746a0)"><path fill="#86b8d5" d="M -6.015625 0.226562 L 27.046875 0.226562 L 27.046875 33.292969 L -6.015625 33.292969 Z M -6.015625 0.226562 " fill-opacity="1" fill-rule="nonzero"/></g></g></g></g><g mask="url(#097dc1e5e1)"><g transform="matrix(1, 0, 0, 1, 913, 176)"><g clip-path="url(#d99f0e3e73)"><g clip-path="url(#2127aa8445)"><path fill="#86b8d5" d="M 0.851562 0.941406 L 53.429688 0.941406 L 53.429688 53.515625 L 0.851562 53.515625 Z M 0.851562 0.941406 " fill-opacity="1" fill-rule="nonzero"/></g></g></g></g><g mask="url(#167db7ac24)"><g transform="matrix(1, 0, 0, 1, 669, 5)"><g clip-path="url(#c26365b767)"><g clip-path="url(#a255ab2457)"><path fill="#b6e4ff" d="M 0.925781 0.757812 L 17.5 0.757812 L 17.5 17.328125 L 0.925781 17.328125 Z M 0.925781 0.757812 " fill-opacity="1" fill-rule="nonzero"/></g></g></g></g></svg>