<svg xmlns="http://www.w3.org/2000/svg" xmlns:xlink="http://www.w3.org/1999/xlink" width="1366" zoomAndPan="magnify" viewBox="0 0 1024.5 576" height="768" preserveAspectRatio="xMidYMid meet" version="1.0"><defs><filter x="0%" y="0%" width="100%" height="100%" id="e94140eccd"><feColorMatrix values="0 0 0 0 1 0 0 0 0 1 0 0 0 0 1 0 0 0 1 0" color-interpolation-filters="sRGB"/></filter><clipPath id="ebae703644"><path d="M 0 0.140625 L 1024 0.140625 L 1024 575.859375 L 0 575.859375 Z M 0 0.140625 " clip-rule="nonzero"/></clipPath><clipPath id="9f5c77db26"><path d="M 781.851562 0.140625 L 1024 0.140625 L 1024 260.820312 L 781.851562 260.820312 Z M 781.851562 0.140625 " clip-rule="nonzero"/></clipPath><clipPath id="6c7705931d"><path d="M 966.429688 -108.335938 C 864.488281 -108.335938 781.851562 -25.695312 781.851562 76.242188 C 781.851562 178.183594 864.488281 260.820312 966.429688 260.820312 C 1068.367188 260.820312 1151.003906 178.183594 1151.003906 76.242188 C 1151.003906 -25.695312 1068.367188 -108.335938 966.429688 -108.335938 Z M 966.429688 -108.335938 " clip-rule="nonzero"/></clipPath><clipPath id="161a7d175d"><path d="M 0 0.140625 L 220 0.140625 L 220 243 L 0 243 Z M 0 0.140625 " clip-rule="nonzero"/></clipPath><mask id="505cdfd9ee"><g filter="url(#e94140eccd)"><rect x="-102.45" width="1229.4" fill="#000000" y="-57.6" height="691.2" fill-opacity="0.37"/></g></mask><clipPath id="47e1603843"><path d="M 0 0.140625 L 219.167969 0.140625 L 219.167969 242.691406 L 0 242.691406 Z M 0 0.140625 " clip-rule="nonzero"/></clipPath><clipPath id="8d530e9b70"><path d="M 34.191406 -127.265625 C -67.96875 -127.265625 -150.789062 -44.449219 -150.789062 57.710938 C -150.789062 159.875 -67.96875 242.691406 34.191406 242.691406 C 136.351562 242.691406 219.167969 159.875 219.167969 57.710938 C 219.167969 -44.449219 136.351562 -127.265625 34.191406 -127.265625 Z M 34.191406 -127.265625 " clip-rule="nonzero"/></clipPath><clipPath id="25ca009dac"><rect x="0" width="220" y="0" height="243"/></clipPath><clipPath id="07cd3a8c90"><path d="M 170 0.140625 L 268 0.140625 L 268 77 L 170 77 Z M 170 0.140625 " clip-rule="nonzero"/></clipPath><mask id="e9bb81ec15"><g filter="url(#e94140eccd)"><rect x="-102.45" width="1229.4" fill="#000000" y="-57.6" height="691.2" fill-opacity="0.26"/></g></mask><clipPath id="5aa5ef6526"><path d="M 0.800781 0.140625 L 97.535156 0.140625 L 97.535156 76.242188 L 0.800781 76.242188 Z M 0.800781 0.140625 " clip-rule="nonzero"/></clipPath><clipPath id="1cb01d99bf"><path d="M 49.167969 -20.492188 C 22.457031 -20.492188 0.800781 1.164062 0.800781 27.875 C 0.800781 54.585938 22.457031 76.242188 49.167969 76.242188 C 75.882812 76.242188 97.535156 54.585938 97.535156 27.875 C 97.535156 1.164062 75.882812 -20.492188 49.167969 -20.492188 Z M 49.167969 -20.492188 " clip-rule="nonzero"/></clipPath><clipPath id="db356908d7"><rect x="0" width="98" y="0" height="77"/></clipPath><clipPath id="593e6aabea"><path d="M 641 0.140625 L 877 0.140625 L 877 118 L 641 118 Z M 641 0.140625 " clip-rule="nonzero"/></clipPath><mask id="46574c178c"><g filter="url(#e94140eccd)"><rect x="-102.45" width="1229.4" fill="#000000" y="-57.6" height="691.2" fill-opacity="0.45"/></g></mask><clipPath id="a66ab50b8e"><path d="M 0.882812 0.140625 L 235.371094 0.140625 L 235.371094 117.386719 L 0.882812 117.386719 Z M 0.882812 0.140625 " clip-rule="nonzero"/></clipPath><clipPath id="d6f87a2658"><path d="M 118.128906 -117.105469 C 53.375 -117.105469 0.882812 -64.613281 0.882812 0.140625 C 0.882812 64.894531 53.375 117.386719 118.128906 117.386719 C 182.878906 117.386719 235.371094 64.894531 235.371094 0.140625 C 235.371094 -64.613281 182.878906 -117.105469 118.128906 -117.105469 Z M 118.128906 -117.105469 " clip-rule="nonzero"/></clipPath><clipPath id="ab09d73b37"><rect x="0" width="236" y="0" height="118"/></clipPath><clipPath id="17e2bde95a"><path d="M 0 390 L 220 390 L 220 575.859375 L 0 575.859375 Z M 0 390 " clip-rule="nonzero"/></clipPath><mask id="96ec8576b3"><g filter="url(#e94140eccd)"><rect x="-102.45" width="1229.4" fill="#000000" y="-57.6" height="691.2" fill-opacity="0.16"/></g></mask><clipPath id="f2a7cb9454"><path d="M 0 0.882812 L 219.167969 0.882812 L 219.167969 185.859375 L 0 185.859375 Z M 0 0.882812 " clip-rule="nonzero"/></clipPath><clipPath id="9f114ce02a"><path d="M 34.191406 0.882812 C -67.96875 0.882812 -150.789062 83.699219 -150.789062 185.859375 C -150.789062 288.019531 -67.96875 370.835938 34.191406 370.835938 C 136.351562 370.835938 219.167969 288.019531 219.167969 185.859375 C 219.167969 83.699219 136.351562 0.882812 34.191406 0.882812 Z M 34.191406 0.882812 " clip-rule="nonzero"/></clipPath><clipPath id="fce34b8379"><rect x="0" width="220" y="0" height="186"/></clipPath><clipPath id="bdead4a954"><path d="M 924 496 L 1024 496 L 1024 575.859375 L 924 575.859375 Z M 924 496 " clip-rule="nonzero"/></clipPath><mask id="ad784f0370"><g filter="url(#e94140eccd)"><rect x="-102.45" width="1229.4" fill="#000000" y="-57.6" height="691.2" fill-opacity="0.8"/></g></mask><clipPath id="441e57435f"><path d="M 1.164062 0.625 L 100 0.625 L 100 79.859375 L 1.164062 79.859375 Z M 1.164062 0.625 " clip-rule="nonzero"/></clipPath><clipPath id="0eeeed1ad1"><path d="M 80.398438 0.625 C 36.636719 0.625 1.164062 36.097656 1.164062 79.859375 C 1.164062 123.621094 36.636719 159.09375 80.398438 159.09375 C 124.160156 159.09375 159.632812 123.621094 159.632812 79.859375 C 159.632812 36.097656 124.160156 0.625 80.398438 0.625 Z M 80.398438 0.625 " clip-rule="nonzero"/></clipPath><clipPath id="9d10436e40"><rect x="0" width="100" y="0" height="80"/></clipPath></defs><g clip-path="url(#ebae703644)"><path fill="#ffffff" d="M 0 0.140625 L 1024 0.140625 L 1024 575.859375 L 0 575.859375 Z M 0 0.140625 " fill-opacity="1" fill-rule="nonzero"/><path fill="#0c4a6e" d="M 0 0.140625 L 1024 0.140625 L 1024 575.859375 L 0 575.859375 Z M 0 0.140625 " fill-opacity="1" fill-rule="nonzero"/></g><g clip-path="url(#9f5c77db26)"><g clip-path="url(#6c7705931d)"><path fill="#105d8a" d="M 781.851562 -108.335938 L 1151.003906 -108.335938 L 1151.003906 260.820312 L 781.851562 260.820312 Z M 781.851562 -108.335938 " fill-opacity="1" fill-rule="nonzero"/></g></g><g clip-path="url(#161a7d175d)"><g mask="url(#505cdfd9ee)"><g transform="matrix(1, 0, 0, 1, 0, 0.000000000000055289)"><g clip-path="url(#25ca009dac)"><g clip-path="url(#47e1603843)"><g clip-path="url(#8d530e9b70)"><path fill="#136fa5" d="M -150.789062 -127.265625 L 219.167969 -127.265625 L 219.167969 242.691406 L -150.789062 242.691406 Z M -150.789062 -127.265625 " fill-opacity="1" fill-rule="nonzero"/></g></g></g></g></g></g><g clip-path="url(#07cd3a8c90)"><g mask="url(#e9bb81ec15)"><g transform="matrix(1, 0, 0, 1, 170, 0.000000000000055289)"><g clip-path="url(#db356908d7)"><g clip-path="url(#5aa5ef6526)"><g clip-path="url(#1cb01d99bf)"><path fill="#1882c0" d="M 0.800781 -20.492188 L 97.535156 -20.492188 L 97.535156 76.242188 L 0.800781 76.242188 Z M 0.800781 -20.492188 " fill-opacity="1" fill-rule="nonzero"/></g></g></g></g></g></g><g clip-path="url(#593e6aabea)"><g mask="url(#46574c178c)"><g transform="matrix(1, 0, 0, 1, 641, 0.000000000000055289)"><g clip-path="url(#ab09d73b37)"><g clip-path="url(#a66ab50b8e)"><g clip-path="url(#d6f87a2658)"><path fill="#105d8a" d="M 0.882812 -117.105469 L 235.371094 -117.105469 L 235.371094 117.386719 L 0.882812 117.386719 Z M 0.882812 -117.105469 " fill-opacity="1" fill-rule="nonzero"/></g></g></g></g></g></g><g clip-path="url(#17e2bde95a)"><g mask="url(#96ec8576b3)"><g transform="matrix(1, 0, 0, 1, 0, 390)"><g clip-path="url(#fce34b8379)"><g clip-path="url(#f2a7cb9454)"><g clip-path="url(#9f114ce02a)"><path fill="#136fa5" d="M -150.789062 0.882812 L 219.167969 0.882812 L 219.167969 370.835938 L -150.789062 370.835938 Z M -150.789062 0.882812 " fill-opacity="1" fill-rule="nonzero"/></g></g></g></g></g></g><g clip-path="url(#bdead4a954)"><g mask="url(#ad784f0370)"><g transform="matrix(1, 0, 0, 1, 924, 496)"><g clip-path="url(#9d10436e40)"><g clip-path="url(#441e57435f)"><g clip-path="url(#0eeeed1ad1)"><path fill="#136fa5" d="M 1.164062 0.625 L 159.632812 0.625 L 159.632812 159.09375 L 1.164062 159.09375 Z M 1.164062 0.625 " fill-opacity="1" fill-rule="nonzero"/></g></g></g></g></g></g></svg>