<svg xmlns="http://www.w3.org/2000/svg" xmlns:xlink="http://www.w3.org/1999/xlink" width="1366" zoomAndPan="magnify" viewBox="0 0 1024.5 576" height="768" preserveAspectRatio="xMidYMid meet" version="1.0"><defs><filter x="0%" y="0%" width="100%" height="100%" id="78e264ea24"><feColorMatrix values="0 0 0 0 1 0 0 0 0 1 0 0 0 0 1 0 0 0 1 0" color-interpolation-filters="sRGB"/></filter><clipPath id="3c2a35f035"><path d="M 0 0.140625 L 1024 0.140625 L 1024 575.859375 L 0 575.859375 Z M 0 0.140625 " clip-rule="nonzero"/></clipPath><clipPath id="ced4829e4d"><path d="M 47 0.140625 L 89 0.140625 L 89 575.859375 L 47 575.859375 Z M 47 0.140625 " clip-rule="nonzero"/></clipPath><mask id="2153501e18"><g filter="url(#78e264ea24)"><rect x="-102.45" width="1229.4" fill="#000000" y="-57.6" height="691.2" fill-opacity="0.07"/></g></mask><clipPath id="5a628975e3"><path d="M 0.9375 0.140625 L 41.210938 0.140625 L 41.210938 575.859375 L 0.9375 575.859375 Z M 0.9375 0.140625 " clip-rule="nonzero"/></clipPath><clipPath id="afa7568af5"><rect x="0" width="42" y="0" height="576"/></clipPath><clipPath id="6f17a16ac1"><path d="M 118 0.140625 L 132 0.140625 L 132 575.859375 L 118 575.859375 Z M 118 0.140625 " clip-rule="nonzero"/></clipPath><mask id="dfc4598211"><g filter="url(#78e264ea24)"><rect x="-102.45" width="1229.4" fill="#000000" y="-57.6" height="691.2" fill-opacity="0.06"/></g></mask><clipPath id="3c3162e02c"><path d="M 0.851562 0.140625 L 13.390625 0.140625 L 13.390625 575.859375 L 0.851562 575.859375 Z M 0.851562 0.140625 " clip-rule="nonzero"/></clipPath><clipPath id="8bca1f39d9"><rect x="0" width="14" y="0" height="576"/></clipPath><clipPath id="dca1af8644"><path d="M 0 0.140625 L 18 0.140625 L 18 575.859375 L 0 575.859375 Z M 0 0.140625 " clip-rule="nonzero"/></clipPath><mask id="2ca3f10447"><g filter="url(#78e264ea24)"><rect x="-102.45" width="1229.4" fill="#000000" y="-57.6" height="691.2" fill-opacity="0.07"/></g></mask><clipPath id="2ef11cc751"><path d="M 0 0.140625 L 17.199219 0.140625 L 17.199219 575.109375 L 0 575.109375 Z M 0 0.140625 " clip-rule="nonzero"/></clipPath><clipPath id="13d25f94a6"><rect x="0" width="18" y="0" height="576"/></clipPath><clipPath id="a12ba68c0c"><path d="M 919 0.140625 L 957 0.140625 L 957 575.859375 L 919 575.859375 Z M 919 0.140625 " clip-rule="nonzero"/></clipPath><mask id="05532a9769"><g filter="url(#78e264ea24)"><rect x="-102.45" width="1229.4" fill="#000000" y="-57.6" height="691.2" fill-opacity="0.1"/></g></mask><clipPath id="fbf0658109"><path d="M 0.707031 0.140625 L 37.605469 0.140625 L 37.605469 575.859375 L 0.707031 575.859375 Z M 0.707031 0.140625 " clip-rule="nonzero"/></clipPath><clipPath id="293fa11201"><rect x="0" width="38" y="0" height="576"/></clipPath><clipPath id="335f184a7f"><path d="M 1000 0.140625 L 1024 0.140625 L 1024 575.859375 L 1000 575.859375 Z M 1000 0.140625 " clip-rule="nonzero"/></clipPath><mask id="373c431385"><g filter="url(#78e264ea24)"><rect x="-102.45" width="1229.4" fill="#000000" y="-57.6" height="691.2" fill-opacity="0.08"/></g></mask><clipPath id="ec0058641b"><path d="M 1.019531 0.140625 L 24 0.140625 L 24 575.859375 L 1.019531 575.859375 Z M 1.019531 0.140625 " clip-rule="nonzero"/></clipPath><clipPath id="dde6fb8dfc"><rect x="0" width="24" y="0" height="576"/></clipPath><clipPath id="cd30fee585"><path d="M 879 0.140625 L 900 0.140625 L 900 575.859375 L 879 575.859375 Z M 879 0.140625 " clip-rule="nonzero"/></clipPath><mask id="b220116ef4"><g filter="url(#78e264ea24)"><rect x="-102.45" width="1229.4" fill="#000000" y="-57.6" height="691.2" fill-opacity="0.09"/></g></mask><clipPath id="56fb11af00"><path d="M 0.699219 0.140625 L 20.46875 0.140625 L 20.46875 575.859375 L 0.699219 575.859375 Z M 0.699219 0.140625 " clip-rule="nonzero"/></clipPath><clipPath id="1b3820d6c3"><rect x="0" width="21" y="0" height="576"/></clipPath><clipPath id="98eb338813"><path d="M 151 0.140625 L 190 0.140625 L 190 575.859375 L 151 575.859375 Z M 151 0.140625 " clip-rule="nonzero"/></clipPath><mask id="2f149f672b"><g filter="url(#78e264ea24)"><rect x="-102.45" width="1229.4" fill="#000000" y="-57.6" height="691.2" fill-opacity="0.07"/></g></mask><clipPath id="d0bfe194bf"><path d="M 0.847656 0.140625 L 38.652344 0.140625 L 38.652344 575.859375 L 0.847656 575.859375 Z M 0.847656 0.140625 " clip-rule="nonzero"/></clipPath><clipPath id="c455f7e40b"><rect x="0" width="39" y="0" height="576"/></clipPath><clipPath id="709c8aab6f"><path d="M 816 0.140625 L 840 0.140625 L 840 575.859375 L 816 575.859375 Z M 816 0.140625 " clip-rule="nonzero"/></clipPath><mask id="f65af8e919"><g filter="url(#78e264ea24)"><rect x="-102.45" width="1229.4" fill="#000000" y="-57.6" height="691.2" fill-opacity="0.07"/></g></mask><clipPath id="8dd1ef3b53"><path d="M 0.242188 0.140625 L 23.21875 0.140625 L 23.21875 575.859375 L 0.242188 575.859375 Z M 0.242188 0.140625 " clip-rule="nonzero"/></clipPath><clipPath id="4f7f103331"><rect x="0" width="24" y="0" height="576"/></clipPath></defs><g clip-path="url(#3c2a35f035)"><path fill="#ffffff" d="M 0 0.140625 L 1024 0.140625 L 1024 575.859375 L 0 575.859375 Z M 0 0.140625 " fill-opacity="1" fill-rule="nonzero"/><path fill="#fefefe" d="M 0 0.140625 L 1024 0.140625 L 1024 575.859375 L 0 575.859375 Z M 0 0.140625 " fill-opacity="1" fill-rule="nonzero"/></g><g clip-path="url(#ced4829e4d)"><g mask="url(#2153501e18)"><g transform="matrix(1, 0, 0, 1, 47, 0.000000000000055289)"><g clip-path="url(#afa7568af5)"><g clip-path="url(#5a628975e3)"><path fill="#a6a6a6" d="M 0.9375 0.140625 L 41.210938 0.140625 L 41.210938 575.796875 L 0.9375 575.796875 Z M 0.9375 0.140625 " fill-opacity="1" fill-rule="nonzero"/></g></g></g></g></g><g clip-path="url(#6f17a16ac1)"><g mask="url(#dfc4598211)"><g transform="matrix(1, 0, 0, 1, 118, 0.000000000000055289)"><g clip-path="url(#8bca1f39d9)"><g clip-path="url(#3c3162e02c)"><path fill="#a6a6a6" d="M 0.851562 0.140625 L 13.390625 0.140625 L 13.390625 575.84375 L 0.851562 575.84375 Z M 0.851562 0.140625 " fill-opacity="1" fill-rule="nonzero"/></g></g></g></g></g><g clip-path="url(#dca1af8644)"><g mask="url(#2ca3f10447)"><g transform="matrix(1, 0, 0, 1, 0, 0.000000000000055289)"><g clip-path="url(#13d25f94a6)"><g clip-path="url(#2ef11cc751)"><path fill="#a6a6a6" d="M -2.472656 -0.609375 L 17.199219 -0.609375 L 17.199219 575.09375 L -2.472656 575.09375 Z M -2.472656 -0.609375 " fill-opacity="1" fill-rule="nonzero"/></g></g></g></g></g><g clip-path="url(#a12ba68c0c)"><g mask="url(#05532a9769)"><g transform="matrix(1, 0, 0, 1, 919, 0.000000000000055289)"><g clip-path="url(#293fa11201)"><g clip-path="url(#fbf0658109)"><path fill="#a6a6a6" d="M 0.707031 0.140625 L 37.605469 0.140625 L 37.605469 575.816406 L 0.707031 575.816406 Z M 0.707031 0.140625 " fill-opacity="1" fill-rule="nonzero"/></g></g></g></g></g><g clip-path="url(#335f184a7f)"><g mask="url(#373c431385)"><g transform="matrix(1, 0, 0, 1, 1000, 0.000000000000055289)"><g clip-path="url(#dde6fb8dfc)"><g clip-path="url(#ec0058641b)"><path fill="#a6a6a6" d="M 1.019531 0.140625 L 24 0.140625 L 24 575.867188 L 1.019531 575.867188 Z M 1.019531 0.140625 " fill-opacity="1" fill-rule="nonzero"/></g></g></g></g></g><g clip-path="url(#cd30fee585)"><g mask="url(#b220116ef4)"><g transform="matrix(1, 0, 0, 1, 879, 0.000000000000055289)"><g clip-path="url(#1b3820d6c3)"><g clip-path="url(#56fb11af00)"><path fill="#a6a6a6" d="M 0.699219 0.140625 L 20.46875 0.140625 L 20.46875 575.867188 L 0.699219 575.867188 Z M 0.699219 0.140625 " fill-opacity="1" fill-rule="nonzero"/></g></g></g></g></g><g clip-path="url(#98eb338813)"><g mask="url(#2f149f672b)"><g transform="matrix(1, 0, 0, 1, 151, 0.000000000000055289)"><g clip-path="url(#c455f7e40b)"><g clip-path="url(#d0bfe194bf)"><path fill="#a6a6a6" d="M 0.847656 -16.898438 L 38.652344 -16.898438 L 38.652344 575.863281 L 0.847656 575.863281 Z M 0.847656 -16.898438 " fill-opacity="1" fill-rule="nonzero"/></g></g></g></g></g><g clip-path="url(#709c8aab6f)"><g mask="url(#f65af8e919)"><g transform="matrix(1, 0, 0, 1, 816, 0.000000000000055289)"><g clip-path="url(#4f7f103331)"><g clip-path="url(#8dd1ef3b53)"><path fill="#a6a6a6" d="M 0.242188 -49.636719 L 23.21875 -49.636719 L 23.21875 575.816406 L 0.242188 575.816406 Z M 0.242188 -49.636719 " fill-opacity="1" fill-rule="nonzero"/></g></g></g></g></g></svg>