<svg xmlns="http://www.w3.org/2000/svg" xmlns:xlink="http://www.w3.org/1999/xlink" width="1366" zoomAndPan="magnify" viewBox="0 0 1024.5 576" height="768" preserveAspectRatio="xMidYMid meet" version="1.0"><defs><filter x="0%" y="0%" width="100%" height="100%" id="f7d818d56b"><feColorMatrix values="0 0 0 0 1 0 0 0 0 1 0 0 0 0 1 0 0 0 1 0" color-interpolation-filters="sRGB"/></filter><clipPath id="54a6b1a89f"><path d="M 0 0.140625 L 1024 0.140625 L 1024 575.859375 L 0 575.859375 Z M 0 0.140625 " clip-rule="nonzero"/></clipPath><clipPath id="7a544ea2e5"><path d="M 0 0.140625 L 81 0.140625 L 81 81 L 0 81 Z M 0 0.140625 " clip-rule="nonzero"/></clipPath><mask id="ec0e92cc3e"><g filter="url(#f7d818d56b)"><rect x="-102.45" width="1229.4" fill="#000000" y="-57.6" height="691.2" fill-opacity="0.05"/></g></mask><clipPath id="8c2910f8d1"><path d="M 0 0.140625 L 80.378906 0.140625 L 80.378906 80.519531 L 0 80.519531 Z M 0 0.140625 " clip-rule="nonzero"/></clipPath><clipPath id="416f0655d6"><rect x="0" width="81" y="0" height="81"/></clipPath><clipPath id="36ff645dec"><path d="M 122 0.140625 L 223 0.140625 L 223 103 L 122 103 Z M 122 0.140625 " clip-rule="nonzero"/></clipPath><mask id="0a8dd98e08"><g filter="url(#f7d818d56b)"><rect x="-102.45" width="1229.4" fill="#000000" y="-57.6" height="691.2" fill-opacity="0.15"/></g></mask><clipPath id="108be45555"><path d="M 0.671875 0.140625 L 100.710938 0.140625 L 100.710938 102.148438 L 0.671875 102.148438 Z M 0.671875 0.140625 " clip-rule="nonzero"/></clipPath><clipPath id="a1d09056f5"><rect x="0" width="101" y="0" height="103"/></clipPath><mask id="8e2985f195"><g filter="url(#f7d818d56b)"><rect x="-102.45" width="1229.4" fill="#000000" y="-57.6" height="691.2" fill-opacity="0.14"/></g></mask><clipPath id="be412c14ad"><path d="M 0 0.285156 L 86.394531 0.285156 L 86.394531 92.695312 L 0 92.695312 Z M 0 0.285156 " clip-rule="nonzero"/></clipPath><clipPath id="489190ab9f"><rect x="0" width="87" y="0" height="93"/></clipPath><mask id="0e70ca4e58"><g filter="url(#f7d818d56b)"><rect x="-102.45" width="1229.4" fill="#000000" y="-57.6" height="691.2" fill-opacity="0.04"/></g></mask><clipPath id="c7e70354e4"><path d="M 0.421875 0.519531 L 71.007812 0.519531 L 71.007812 67.96875 L 0.421875 67.96875 Z M 0.421875 0.519531 " clip-rule="nonzero"/></clipPath><clipPath id="53b8b05d76"><rect x="0" width="72" y="0" height="69"/></clipPath><mask id="e598b7ffc5"><g filter="url(#f7d818d56b)"><rect x="-102.45" width="1229.4" fill="#000000" y="-57.6" height="691.2" fill-opacity="0.05"/></g></mask><clipPath id="34866476c3"><path d="M 0.742188 0.753906 L 53.316406 0.753906 L 53.316406 53.328125 L 0.742188 53.328125 Z M 0.742188 0.753906 " clip-rule="nonzero"/></clipPath><clipPath id="ad75c3d304"><rect x="0" width="54" y="0" height="54"/></clipPath><mask id="c571b033a4"><g filter="url(#f7d818d56b)"><rect x="-102.45" width="1229.4" fill="#000000" y="-57.6" height="691.2" fill-opacity="0.08"/></g></mask><clipPath id="919a79e9c1"><path d="M 0.144531 0.183594 L 62.4375 0.183594 L 62.4375 62.476562 L 0.144531 62.476562 Z M 0.144531 0.183594 " clip-rule="nonzero"/></clipPath><clipPath id="ce40cf235e"><rect x="0" width="63" y="0" height="63"/></clipPath><mask id="c3710120bc"><g filter="url(#f7d818d56b)"><rect x="-102.45" width="1229.4" fill="#000000" y="-57.6" height="691.2" fill-opacity="0.05"/></g></mask><clipPath id="f1725d0bbe"><path d="M 0.886719 0.632812 L 33.953125 0.632812 L 33.953125 33.695312 L 0.886719 33.695312 Z M 0.886719 0.632812 " clip-rule="nonzero"/></clipPath><clipPath id="b2a06754fc"><rect x="0" width="35" y="0" height="34"/></clipPath><mask id="7691fc41fc"><g filter="url(#f7d818d56b)"><rect x="-102.45" width="1229.4" fill="#000000" y="-57.6" height="691.2" fill-opacity="0.05"/></g></mask><clipPath id="a145f93816"><path d="M 1.109375 1.078125 L 22.175781 1.078125 L 22.175781 22.148438 L 1.109375 22.148438 Z M 1.109375 1.078125 " clip-rule="nonzero"/></clipPath><clipPath id="83e9b2ef9c"><rect x="0" width="23" y="0" height="23"/></clipPath><clipPath id="9afe79681a"><path d="M 251 0.140625 L 305 0.140625 L 305 36 L 251 36 Z M 251 0.140625 " clip-rule="nonzero"/></clipPath><mask id="35736cc50e"><g filter="url(#f7d818d56b)"><rect x="-102.45" width="1229.4" fill="#000000" y="-57.6" height="691.2" fill-opacity="0.05"/></g></mask><clipPath id="db15dde4a1"><path d="M 0.410156 0.140625 L 52.984375 0.140625 L 52.984375 35.472656 L 0.410156 35.472656 Z M 0.410156 0.140625 " clip-rule="nonzero"/></clipPath><clipPath id="675f807c99"><rect x="0" width="54" y="0" height="36"/></clipPath><mask id="93ba4a555a"><g filter="url(#f7d818d56b)"><rect x="-102.45" width="1229.4" fill="#000000" y="-57.6" height="691.2" fill-opacity="0.05"/></g></mask><clipPath id="236d720863"><path d="M 0.476562 0.898438 L 17.050781 0.898438 L 17.050781 17.472656 L 0.476562 17.472656 Z M 0.476562 0.898438 " clip-rule="nonzero"/></clipPath><clipPath id="917d1857bf"><rect x="0" width="18" y="0" height="18"/></clipPath><clipPath id="b84055a6da"><path d="M 801 0.140625 L 882 0.140625 L 882 82 L 801 82 Z M 801 0.140625 " clip-rule="nonzero"/></clipPath><mask id="eecf3e6797"><g filter="url(#f7d818d56b)"><rect x="-102.45" width="1229.4" fill="#000000" y="-57.6" height="691.2" fill-opacity="0.05"/></g></mask><clipPath id="9f25573564"><path d="M 0.289062 0.699219 L 80.667969 0.699219 L 80.667969 81.078125 L 0.289062 81.078125 Z M 0.289062 0.699219 " clip-rule="nonzero"/></clipPath><clipPath id="68d04af6da"><rect x="0" width="81" y="0" height="82"/></clipPath><clipPath id="01b77c9dc6"><path d="M 923 0.140625 L 1024 0.140625 L 1024 112 L 923 112 Z M 923 0.140625 " clip-rule="nonzero"/></clipPath><mask id="6da0b1babc"><g filter="url(#f7d818d56b)"><rect x="-102.45" width="1229.4" fill="#000000" y="-57.6" height="691.2" fill-opacity="0.15"/></g></mask><clipPath id="34f72d63b3"><path d="M 0.960938 0.140625 L 101 0.140625 L 101 111.753906 L 0.960938 111.753906 Z M 0.960938 0.140625 " clip-rule="nonzero"/></clipPath><clipPath id="1c57c21c97"><rect x="0" width="101" y="0" height="112"/></clipPath><mask id="2dce37b56c"><g filter="url(#f7d818d56b)"><rect x="-102.45" width="1229.4" fill="#000000" y="-57.6" height="691.2" fill-opacity="0.07"/></g></mask><clipPath id="3934bd95d5"><path d="M 0.273438 0.890625 L 92.683594 0.890625 L 92.683594 93.300781 L 0.273438 93.300781 Z M 0.273438 0.890625 " clip-rule="nonzero"/></clipPath><clipPath id="cab4583b10"><rect x="0" width="93" y="0" height="94"/></clipPath><mask id="aa310ccd47"><g filter="url(#f7d818d56b)"><rect x="-102.45" width="1229.4" fill="#000000" y="-57.6" height="691.2" fill-opacity="0.11"/></g></mask><clipPath id="49d7b13061"><path d="M 0.707031 0.125 L 71.296875 0.125 L 71.296875 67.570312 L 0.707031 67.570312 Z M 0.707031 0.125 " clip-rule="nonzero"/></clipPath><clipPath id="67324fa25f"><rect x="0" width="72" y="0" height="68"/></clipPath><mask id="91fcf73dc1"><g filter="url(#f7d818d56b)"><rect x="-102.45" width="1229.4" fill="#000000" y="-57.6" height="691.2" fill-opacity="0.05"/></g></mask><clipPath id="169f3c3820"><path d="M 1.03125 0.355469 L 53.605469 0.355469 L 53.605469 52.933594 L 1.03125 52.933594 Z M 1.03125 0.355469 " clip-rule="nonzero"/></clipPath><clipPath id="800090d9dc"><rect x="0" width="54" y="0" height="54"/></clipPath><mask id="664cc91882"><g filter="url(#f7d818d56b)"><rect x="-102.45" width="1229.4" fill="#000000" y="-57.6" height="691.2" fill-opacity="0.08"/></g></mask><clipPath id="2c62e5d19c"><path d="M 0.433594 0.789062 L 62.726562 0.789062 L 62.726562 63.078125 L 0.433594 63.078125 Z M 0.433594 0.789062 " clip-rule="nonzero"/></clipPath><clipPath id="8127bbf542"><rect x="0" width="63" y="0" height="64"/></clipPath><mask id="650eea5253"><g filter="url(#f7d818d56b)"><rect x="-102.45" width="1229.4" fill="#000000" y="-57.6" height="691.2" fill-opacity="0.05"/></g></mask><clipPath id="666200b2dc"><path d="M 0.765625 1.164062 L 33.828125 1.164062 L 33.828125 34.226562 L 0.765625 34.226562 Z M 0.765625 1.164062 " clip-rule="nonzero"/></clipPath><clipPath id="6e5e74cc13"><rect x="0" width="34" y="0" height="35"/></clipPath><mask id="39106a0c8e"><g filter="url(#f7d818d56b)"><rect x="-102.45" width="1229.4" fill="#000000" y="-57.6" height="691.2" fill-opacity="0.05"/></g></mask><clipPath id="70355269e9"><path d="M 0.394531 0.683594 L 21.464844 0.683594 L 21.464844 21.753906 L 0.394531 21.753906 Z M 0.394531 0.683594 " clip-rule="nonzero"/></clipPath><clipPath id="de6550a4b1"><rect x="0" width="22" y="0" height="22"/></clipPath><clipPath id="5702a235a3"><path d="M 728 0.140625 L 782 0.140625 L 782 41 L 728 41 Z M 728 0.140625 " clip-rule="nonzero"/></clipPath><mask id="b9b10acf6e"><g filter="url(#f7d818d56b)"><rect x="-102.45" width="1229.4" fill="#000000" y="-57.6" height="691.2" fill-opacity="0.05"/></g></mask><clipPath id="e14ab5b2e7"><path d="M 0.476562 0.140625 L 53.054688 0.140625 L 53.054688 40.332031 L 0.476562 40.332031 Z M 0.476562 0.140625 " clip-rule="nonzero"/></clipPath><clipPath id="fca83f7470"><rect x="0" width="54" y="0" height="41"/></clipPath><mask id="e002f5ca65"><g filter="url(#f7d818d56b)"><rect x="-102.45" width="1229.4" fill="#000000" y="-57.6" height="691.2" fill-opacity="0.05"/></g></mask><clipPath id="81e037ee69"><path d="M 0.480469 0.425781 L 17.054688 0.425781 L 17.054688 17 L 0.480469 17 Z M 0.480469 0.425781 " clip-rule="nonzero"/></clipPath><clipPath id="d8ac7c6b43"><rect x="0" width="18" y="0" height="18"/></clipPath><mask id="637122f5b4"><g filter="url(#f7d818d56b)"><rect x="-102.45" width="1229.4" fill="#000000" y="-57.6" height="691.2" fill-opacity="0.05"/></g></mask><clipPath id="27e18c1235"><path d="M 0 0.226562 L 27.046875 0.226562 L 27.046875 33.292969 L 0 33.292969 Z M 0 0.226562 " clip-rule="nonzero"/></clipPath><clipPath id="547894c9a5"><rect x="0" width="28" y="0" height="34"/></clipPath><mask id="e6ffd609b0"><g filter="url(#f7d818d56b)"><rect x="-102.45" width="1229.4" fill="#000000" y="-57.6" height="691.2" fill-opacity="0.05"/></g></mask><clipPath id="5b806a2c38"><path d="M 0.851562 0.941406 L 53.429688 0.941406 L 53.429688 53.515625 L 0.851562 53.515625 Z M 0.851562 0.941406 " clip-rule="nonzero"/></clipPath><clipPath id="7ff41f4dba"><rect x="0" width="54" y="0" height="54"/></clipPath><mask id="bcedd32c8e"><g filter="url(#f7d818d56b)"><rect x="-102.45" width="1229.4" fill="#000000" y="-57.6" height="691.2" fill-opacity="0.05"/></g></mask><clipPath id="80d451cbbc"><path d="M 0.925781 0.757812 L 17.5 0.757812 L 17.5 17.328125 L 0.925781 17.328125 Z M 0.925781 0.757812 " clip-rule="nonzero"/></clipPath><clipPath id="72d8012097"><rect x="0" width="18" y="0" height="18"/></clipPath></defs><g clip-path="url(#54a6b1a89f)"><path fill="#ffffff" d="M 0 0.140625 L 1024 0.140625 L 1024 575.859375 L 0 575.859375 Z M 0 0.140625 " fill-opacity="1" fill-rule="nonzero"/><path fill="#0c4a6e" d="M 0 0.140625 L 1024 0.140625 L 1024 575.859375 L 0 575.859375 Z M 0 0.140625 " fill-opacity="1" fill-rule="nonzero"/></g><g clip-path="url(#7a544ea2e5)"><g mask="url(#ec0e92cc3e)"><g transform="matrix(1, 0, 0, 1, 0, 0.000000000000055289)"><g clip-path="url(#416f0655d6)"><g clip-path="url(#8c2910f8d1)"><path fill="#b6e4ff" d="M 0 0.140625 L 80.378906 0.140625 L 80.378906 80.519531 L 0 80.519531 Z M 0 0.140625 " fill-opacity="1" fill-rule="nonzero"/></g></g></g></g></g><g clip-path="url(#36ff645dec)"><g mask="url(#0a8dd98e08)"><g transform="matrix(1, 0, 0, 1, 122, 0.000000000000055289)"><g clip-path="url(#a1d09056f5)"><g clip-path="url(#108be45555)"><path fill="#136fa5" d="M 0.671875 -9.460938 L 100.710938 -9.460938 L 100.710938 102.300781 L 0.671875 102.300781 Z M 0.671875 -9.460938 " fill-opacity="1" fill-rule="nonzero"/></g></g></g></g></g><g mask="url(#8e2985f195)"><g transform="matrix(1, 0, 0, 1, 0, 94)"><g clip-path="url(#489190ab9f)"><g clip-path="url(#be412c14ad)"><path fill="#1882c0" d="M -6.015625 0.285156 L 86.394531 0.285156 L 86.394531 92.695312 L -6.015625 92.695312 Z M -6.015625 0.285156 " fill-opacity="1" fill-rule="nonzero"/></g></g></g></g><g mask="url(#0e70ca4e58)"><g transform="matrix(1, 0, 0, 1, 133, 80)"><g clip-path="url(#53b8b05d76)"><g clip-path="url(#c7e70354e4)"><path fill="#b6e4ff" d="M 0.421875 0.519531 L 71.03125 0.519531 L 71.03125 67.96875 L 0.421875 67.96875 Z M 0.421875 0.519531 " fill-opacity="1" fill-rule="nonzero"/></g></g></g></g><g mask="url(#e598b7ffc5)"><g transform="matrix(1, 0, 0, 1, 52, 111)"><g clip-path="url(#ad75c3d304)"><g clip-path="url(#34866476c3)"><path fill="#b6e4ff" d="M 0.742188 0.753906 L 53.316406 0.753906 L 53.316406 53.328125 L 0.742188 53.328125 Z M 0.742188 0.753906 " fill-opacity="1" fill-rule="nonzero"/></g></g></g></g><g mask="url(#c571b033a4)"><g transform="matrix(1, 0, 0, 1, 94, 9)"><g clip-path="url(#ce40cf235e)"><g clip-path="url(#919a79e9c1)"><path fill="#b6e4ff" d="M 0.144531 0.183594 L 62.4375 0.183594 L 62.4375 62.476562 L 0.144531 62.476562 Z M 0.144531 0.183594 " fill-opacity="1" fill-rule="nonzero"/></g></g></g></g><g mask="url(#c3710120bc)"><g transform="matrix(1, 0, 0, 1, 116, 153)"><g clip-path="url(#b2a06754fc)"><g clip-path="url(#f1725d0bbe)"><path fill="#b6e4ff" d="M 0.886719 0.632812 L 33.953125 0.632812 L 33.953125 33.695312 L 0.886719 33.695312 Z M 0.886719 0.632812 " fill-opacity="1" fill-rule="nonzero"/></g></g></g></g><g mask="url(#7691fc41fc)"><g transform="matrix(1, 0, 0, 1, 90, 80)"><g clip-path="url(#83e9b2ef9c)"><g clip-path="url(#a145f93816)"><path fill="#b6e4ff" d="M 1.109375 1.078125 L 22.175781 1.078125 L 22.175781 22.148438 L 1.109375 22.148438 Z M 1.109375 1.078125 " fill-opacity="1" fill-rule="nonzero"/></g></g></g></g><g clip-path="url(#9afe79681a)"><g mask="url(#35736cc50e)"><g transform="matrix(1, 0, 0, 1, 251, 0.000000000000055289)"><g clip-path="url(#675f807c99)"><g clip-path="url(#db15dde4a1)"><path fill="#b6e4ff" d="M 0.410156 -17.105469 L 52.984375 -17.105469 L 52.984375 35.472656 L 0.410156 35.472656 Z M 0.410156 -17.105469 " fill-opacity="1" fill-rule="nonzero"/></g></g></g></g></g><g mask="url(#93ba4a555a)"><g transform="matrix(1, 0, 0, 1, 317, 18)"><g clip-path="url(#917d1857bf)"><g clip-path="url(#236d720863)"><path fill="#b6e4ff" d="M 0.476562 0.898438 L 17.050781 0.898438 L 17.050781 17.472656 L 0.476562 17.472656 Z M 0.476562 0.898438 " fill-opacity="1" fill-rule="nonzero"/></g></g></g></g><g clip-path="url(#b84055a6da)"><g mask="url(#eecf3e6797)"><g transform="matrix(1, 0, 0, 1, 801, 0.000000000000055178)"><g clip-path="url(#68d04af6da)"><g clip-path="url(#9f25573564)"><path fill="#b6e4ff" d="M 0.289062 0.699219 L 80.667969 0.699219 L 80.667969 81.078125 L 0.289062 81.078125 Z M 0.289062 0.699219 " fill-opacity="1" fill-rule="nonzero"/></g></g></g></g></g><g clip-path="url(#01b77c9dc6)"><g mask="url(#6da0b1babc)"><g transform="matrix(1, 0, 0, 1, 923, 0.000000000000055289)"><g clip-path="url(#1c57c21c97)"><g clip-path="url(#34f72d63b3)"><path fill="#136fa5" d="M 0.960938 0.140625 L 101 0.140625 L 101 111.902344 L 0.960938 111.902344 Z M 0.960938 0.140625 " fill-opacity="1" fill-rule="nonzero"/></g></g></g></g></g><g mask="url(#2dce37b56c)"><g transform="matrix(1, 0, 0, 1, 795, 103)"><g clip-path="url(#cab4583b10)"><g clip-path="url(#3934bd95d5)"><path fill="#1882c0" d="M 0.273438 0.890625 L 92.683594 0.890625 L 92.683594 93.300781 L 0.273438 93.300781 Z M 0.273438 0.890625 " fill-opacity="1" fill-rule="nonzero"/></g></g></g></g><g mask="url(#aa310ccd47)"><g transform="matrix(1, 0, 0, 1, 934, 90)"><g clip-path="url(#67324fa25f)"><g clip-path="url(#49d7b13061)"><path fill="#b6e4ff" d="M 0.707031 0.125 L 71.320312 0.125 L 71.320312 67.570312 L 0.707031 67.570312 Z M 0.707031 0.125 " fill-opacity="1" fill-rule="nonzero"/></g></g></g></g><g mask="url(#91fcf73dc1)"><g transform="matrix(1, 0, 0, 1, 853, 121)"><g clip-path="url(#800090d9dc)"><g clip-path="url(#169f3c3820)"><path fill="#b6e4ff" d="M 1.03125 0.355469 L 53.605469 0.355469 L 53.605469 52.933594 L 1.03125 52.933594 Z M 1.03125 0.355469 " fill-opacity="1" fill-rule="nonzero"/></g></g></g></g><g mask="url(#664cc91882)"><g transform="matrix(1, 0, 0, 1, 895, 18)"><g clip-path="url(#8127bbf542)"><g clip-path="url(#2c62e5d19c)"><path fill="#b6e4ff" d="M 0.433594 0.789062 L 62.726562 0.789062 L 62.726562 63.078125 L 0.433594 63.078125 Z M 0.433594 0.789062 " fill-opacity="1" fill-rule="nonzero"/></g></g></g></g><g mask="url(#650eea5253)"><g transform="matrix(1, 0, 0, 1, 988, 169)"><g clip-path="url(#6e5e74cc13)"><g clip-path="url(#666200b2dc)"><path fill="#b6e4ff" d="M 0.765625 1.164062 L 33.828125 1.164062 L 33.828125 34.226562 L 0.765625 34.226562 Z M 0.765625 1.164062 " fill-opacity="1" fill-rule="nonzero"/></g></g></g></g><g mask="url(#39106a0c8e)"><g transform="matrix(1, 0, 0, 1, 892, 90)"><g clip-path="url(#de6550a4b1)"><g clip-path="url(#70355269e9)"><path fill="#b6e4ff" d="M 0.394531 0.683594 L 21.464844 0.683594 L 21.464844 21.753906 L 0.394531 21.753906 Z M 0.394531 0.683594 " fill-opacity="1" fill-rule="nonzero"/></g></g></g></g><g clip-path="url(#5702a235a3)"><g mask="url(#b9b10acf6e)"><g transform="matrix(1, 0, 0, 1, 728, 0.000000000000055289)"><g clip-path="url(#fca83f7470)"><g clip-path="url(#e14ab5b2e7)"><path fill="#b6e4ff" d="M 0.476562 -12.246094 L 53.054688 -12.246094 L 53.054688 40.332031 L 0.476562 40.332031 Z M 0.476562 -12.246094 " fill-opacity="1" fill-rule="nonzero"/></g></g></g></g></g><g mask="url(#e002f5ca65)"><g transform="matrix(1, 0, 0, 1, 764, 49)"><g clip-path="url(#d8ac7c6b43)"><g clip-path="url(#81e037ee69)"><path fill="#b6e4ff" d="M 0.480469 0.425781 L 17.054688 0.425781 L 17.054688 17 L 0.480469 17 Z M 0.480469 0.425781 " fill-opacity="1" fill-rule="nonzero"/></g></g></g></g><g mask="url(#637122f5b4)"><g transform="matrix(1, 0, 0, 1, 0, 203)"><g clip-path="url(#547894c9a5)"><g clip-path="url(#27e18c1235)"><path fill="#b6e4ff" d="M -6.015625 0.226562 L 27.046875 0.226562 L 27.046875 33.292969 L -6.015625 33.292969 Z M -6.015625 0.226562 " fill-opacity="1" fill-rule="nonzero"/></g></g></g></g><g mask="url(#e6ffd609b0)"><g transform="matrix(1, 0, 0, 1, 913, 176)"><g clip-path="url(#7ff41f4dba)"><g clip-path="url(#5b806a2c38)"><path fill="#b6e4ff" d="M 0.851562 0.941406 L 53.429688 0.941406 L 53.429688 53.515625 L 0.851562 53.515625 Z M 0.851562 0.941406 " fill-opacity="1" fill-rule="nonzero"/></g></g></g></g><g mask="url(#bcedd32c8e)"><g transform="matrix(1, 0, 0, 1, 669, 5)"><g clip-path="url(#72d8012097)"><g clip-path="url(#80d451cbbc)"><path fill="#b6e4ff" d="M 0.925781 0.757812 L 17.5 0.757812 L 17.5 17.328125 L 0.925781 17.328125 Z M 0.925781 0.757812 " fill-opacity="1" fill-rule="nonzero"/></g></g></g></g></svg>