<svg xmlns="http://www.w3.org/2000/svg" xmlns:xlink="http://www.w3.org/1999/xlink" width="1366" zoomAndPan="magnify" viewBox="0 0 1024.5 576" height="768" preserveAspectRatio="xMidYMid meet" version="1.0"><defs><filter x="0%" y="0%" width="100%" height="100%" id="5d4f6d1f16"><feColorMatrix values="0 0 0 0 1 0 0 0 0 1 0 0 0 0 1 0 0 0 1 0" color-interpolation-filters="sRGB"/></filter><clipPath id="1ed54d4bb4"><path d="M 0 0.140625 L 1024 0.140625 L 1024 575.859375 L 0 575.859375 Z M 0 0.140625 " clip-rule="nonzero"/></clipPath><clipPath id="3adc269ae2"><path d="M 0 0.140625 L 130 0.140625 L 130 122 L 0 122 Z M 0 0.140625 " clip-rule="nonzero"/></clipPath><mask id="b3705e72f0"><g filter="url(#5d4f6d1f16)"><rect x="-102.45" width="1229.4" fill="#000000" y="-57.6" height="691.2" fill-opacity="0.11"/></g></mask><clipPath id="fd4e9a8605"><path d="M 10.332031 9.378906 L 122.25 9.378906 L 122.25 121.5625 L 10.332031 121.5625 Z M 10.332031 9.378906 " clip-rule="nonzero"/></clipPath><clipPath id="fb0d9c0ce7"><path d="M 80 0.160156 L 128.9375 0.160156 L 128.9375 49.421875 L 80 49.421875 Z M 80 0.160156 " clip-rule="nonzero"/></clipPath><clipPath id="bbcebf93fa"><rect x="0" width="130" y="0" height="122"/></clipPath><clipPath id="69191ae345"><path d="M 775 0.140625 L 1024 0.140625 L 1024 176 L 775 176 Z M 775 0.140625 " clip-rule="nonzero"/></clipPath><mask id="c64aa7c6b8"><g filter="url(#5d4f6d1f16)"><rect x="-102.45" width="1229.4" fill="#000000" y="-57.6" height="691.2" fill-opacity="0.03"/></g></mask><clipPath id="fe9e0c39f0"><path d="M 117 0.140625 L 179 0.140625 L 179 96 L 117 96 Z M 117 0.140625 " clip-rule="nonzero"/></clipPath><clipPath id="73a945a7f4"><path d="M 0.726562 102 L 47 102 L 47 175.554688 L 0.726562 175.554688 Z M 0.726562 102 " clip-rule="nonzero"/></clipPath><clipPath id="19fd560e8a"><path d="M 200 108 L 248.855469 108 L 248.855469 167 L 200 167 Z M 200 108 " clip-rule="nonzero"/></clipPath><clipPath id="0245e81cec"><rect x="0" width="249" y="0" height="176"/></clipPath><clipPath id="3538c989ef"><path d="M 734 0.140625 L 818 0.140625 L 818 79 L 734 79 Z M 734 0.140625 " clip-rule="nonzero"/></clipPath><mask id="f4456270de"><g filter="url(#5d4f6d1f16)"><rect x="-102.45" width="1229.4" fill="#000000" y="-57.6" height="691.2" fill-opacity="0.09"/></g></mask><clipPath id="41ff635412"><path d="M 7.027344 6.011719 L 78.605469 6.011719 L 78.605469 77.34375 L 7.027344 77.34375 Z M 7.027344 6.011719 " clip-rule="nonzero"/></clipPath><clipPath id="c2e2f2cb38"><path d="M 0.421875 47 L 22 47 L 22 69 L 0.421875 69 Z M 0.421875 47 " clip-rule="nonzero"/></clipPath><clipPath id="6fd8d7b741"><path d="M 51.441406 0.152344 L 82.878906 0.152344 L 82.878906 31.476562 L 51.441406 31.476562 Z M 51.441406 0.152344 " clip-rule="nonzero"/></clipPath><clipPath id="8ecadeffbf"><rect x="0" width="84" y="0" height="79"/></clipPath><mask id="3eb8b5d2ff"><g filter="url(#5d4f6d1f16)"><rect x="-102.45" width="1229.4" fill="#000000" y="-57.6" height="691.2" fill-opacity="0.05"/></g></mask><clipPath id="0053d694b7"><path d="M 0 0.429688 L 106 0.429688 L 106 144 L 0 144 Z M 0 0.429688 " clip-rule="nonzero"/></clipPath><clipPath id="ff47a19bf5"><path d="M 79 71 L 151.097656 71 L 151.097656 144.359375 L 79 144.359375 Z M 79 71 " clip-rule="nonzero"/></clipPath><clipPath id="36e92ecd2e"><rect x="0" width="153" y="0" height="145"/></clipPath><mask id="5c3d540df7"><g filter="url(#5d4f6d1f16)"><rect x="-102.45" width="1229.4" fill="#000000" y="-57.6" height="691.2" fill-opacity="0.07"/></g></mask><clipPath id="761d52e8e9"><path d="M 0.28125 23 L 72 23 L 72 95 L 0.28125 95 Z M 0.28125 23 " clip-rule="nonzero"/></clipPath><clipPath id="c9e3c4c29d"><path d="M 49 0.6875 L 93.238281 0.6875 L 93.238281 45 L 49 45 Z M 49 0.6875 " clip-rule="nonzero"/></clipPath><clipPath id="1f361108d1"><rect x="0" width="95" y="0" height="96"/></clipPath></defs><g clip-path="url(#1ed54d4bb4)"><path fill="#ffffff" d="M 0 0.140625 L 1024 0.140625 L 1024 575.859375 L 0 575.859375 Z M 0 0.140625 " fill-opacity="1" fill-rule="nonzero"/><path fill="#fffaec" d="M 0 0.140625 L 1024 0.140625 L 1024 575.859375 L 0 575.859375 Z M 0 0.140625 " fill-opacity="1" fill-rule="nonzero"/></g><g clip-path="url(#3adc269ae2)"><g mask="url(#b3705e72f0)"><g transform="matrix(1, 0, 0, 1, 0, 0.000000000000055289)"><g clip-path="url(#bbcebf93fa)"><g clip-path="url(#fd4e9a8605)"><path fill="#100f0d" d="M 66.21875 9.5 C 64.765625 62.890625 63.589844 64.074219 10.402344 65.53125 C 63.589844 66.992188 64.765625 68.171875 66.21875 121.566406 C 67.671875 68.171875 68.847656 66.992188 122.03125 65.53125 C 68.847656 64.074219 67.671875 62.890625 66.21875 9.5 " fill-opacity="1" fill-rule="nonzero"/></g><path fill="#100f0d" d="M 16.097656 74.992188 C 15.679688 90.390625 15.339844 90.730469 0 91.152344 C 15.339844 91.574219 15.679688 91.914062 16.097656 107.3125 C 16.515625 91.914062 16.855469 91.574219 32.195312 91.152344 C 16.855469 90.730469 16.515625 90.390625 16.097656 74.992188 " fill-opacity="1" fill-rule="nonzero"/><g clip-path="url(#fb0d9c0ce7)"><path fill="#100f0d" d="M 104.492188 49.261719 C 105.128906 25.867188 105.644531 25.347656 128.945312 24.710938 C 105.644531 24.070312 105.128906 23.554688 104.492188 0.160156 C 103.855469 23.554688 103.339844 24.070312 80.039062 24.710938 C 103.339844 25.347656 103.855469 25.867188 104.492188 49.261719 " fill-opacity="1" fill-rule="nonzero"/></g></g></g></g></g><g clip-path="url(#69191ae345)"><g mask="url(#c64aa7c6b8)"><g transform="matrix(1, 0, 0, 1, 775, 0.000000000000055289)"><g clip-path="url(#0245e81cec)"><path fill="#000000" d="M 130.574219 90.574219 C 123.066406 91.730469 115.753906 92.90625 108.429688 93.972656 C 97.328125 95.585938 91.140625 102.203125 89.351562 113.007812 C 88.085938 120.671875 87.007812 128.386719 86.296875 136.121094 C 85.460938 145.273438 85.109375 154.464844 84.207031 163.703125 C 83.835938 159.933594 83.453125 156.164062 83.089844 152.394531 C 81.980469 140.789062 80.890625 129.1875 79.75 117.589844 C 79.613281 116.1875 79.1875 114.820312 78.957031 113.425781 C 77.15625 102.484375 70.695312 96.183594 59.867188 94.308594 C 54.648438 93.40625 49.402344 92.671875 44.175781 91.835938 C 42.292969 91.535156 40.425781 91.167969 37.738281 90.679688 C 46.023438 89.640625 53.421875 88.761719 60.8125 87.777344 C 71.488281 86.359375 77.691406 80.0625 79.367188 69.628906 C 80.90625 60.050781 81.914062 50.386719 82.992188 40.746094 C 83.617188 35.171875 83.921875 29.566406 84.425781 23.265625 C 85.421875 34.199219 86.191406 44.417969 87.335938 54.589844 C 87.988281 60.371094 89.105469 66.109375 90.265625 71.816406 C 92.105469 80.859375 97.953125 85.949219 106.855469 87.394531 C 114.6875 88.667969 122.589844 89.519531 130.574219 90.574219 Z M 130.574219 90.574219 " fill-opacity="1" fill-rule="nonzero"/><g clip-path="url(#fe9e0c39f0)"><path fill="#000000" d="M 149.136719 0.167969 C 150.148438 9.542969 150.839844 18.171875 152.054688 26.734375 C 154.042969 40.808594 157.84375 42.921875 169.554688 44.675781 C 172.320312 45.089844 175.113281 45.339844 178.039062 46.460938 C 177.019531 46.730469 176.015625 47.066406 174.980469 47.257812 C 170.824219 48.027344 166.597656 48.5 162.523438 49.5625 C 158.148438 50.703125 154.996094 53.65625 153.863281 58.089844 C 152.648438 62.863281 151.765625 67.734375 151.023438 72.609375 C 150.441406 76.445312 150.167969 80.34375 149.996094 84.226562 C 149.828125 88.101562 149.960938 91.992188 149.960938 95.875 C 149.613281 95.890625 149.269531 95.90625 148.925781 95.917969 C 148.1875 87.777344 147.566406 79.621094 146.667969 71.5 C 146.226562 67.484375 145.4375 63.488281 144.5 59.554688 C 143.246094 54.277344 139.765625 50.847656 134.546875 49.597656 C 129.417969 48.367188 124.183594 47.597656 117.808594 46.402344 C 120.441406 45.90625 122.070312 45.542969 123.71875 45.304688 C 126.691406 44.878906 129.679688 44.589844 132.644531 44.136719 C 139.753906 43.046875 144.140625 38.933594 145.4375 31.875 C 146.421875 26.503906 147.105469 21.070312 147.738281 15.640625 C 148.3125 10.734375 148.640625 5.792969 149.136719 0.167969 Z M 149.136719 0.167969 " fill-opacity="1" fill-rule="nonzero"/></g><g clip-path="url(#73a945a7f4)"><path fill="#000000" d="M 0.875 136.121094 C 4.332031 135.570312 7.804688 135.085938 11.25 134.445312 C 16.128906 133.535156 19.167969 130.441406 20.0625 125.695312 C 21.132812 119.988281 21.746094 114.191406 22.480469 108.425781 C 22.722656 106.527344 22.734375 104.597656 23.511719 102.605469 C 23.820312 104.992188 24.105469 107.382812 24.4375 109.769531 C 25.144531 114.832031 25.769531 119.90625 26.628906 124.945312 C 27.566406 130.441406 30.832031 133.730469 36.4375 134.550781 C 39.640625 135.023438 42.832031 135.542969 46.085938 136.667969 C 44.972656 136.960938 43.875 137.316406 42.746094 137.53125 C 41.707031 137.730469 40.636719 137.726562 39.589844 137.894531 C 30.140625 139.40625 26.855469 142.773438 25.628906 152.351562 C 25.136719 156.203125 24.808594 160.074219 24.417969 163.9375 C 24.027344 167.800781 23.652344 171.660156 22.964844 175.527344 C 22.445312 169.417969 21.988281 163.304688 21.371094 157.203125 C 21.070312 154.230469 20.621094 151.25 19.960938 148.332031 C 18.792969 143.203125 15.539062 139.996094 10.371094 138.878906 C 7.171875 138.1875 3.9375 137.640625 0.722656 137.027344 C 0.769531 136.726562 0.824219 136.421875 0.875 136.121094 Z M 0.875 136.121094 " fill-opacity="1" fill-rule="nonzero"/></g><g clip-path="url(#19fd560e8a)"><path fill="#000000" d="M 231.367188 133.613281 C 230.347656 131.351562 229.332031 129.089844 228.3125 126.824219 C 230.921875 131.808594 235.078125 133.980469 240.402344 134.589844 C 243.527344 134.949219 246.621094 135.59375 248.851562 135.960938 C 245.441406 136.472656 241.164062 137.109375 236.890625 137.746094 C 236.800781 137.644531 236.710938 137.542969 236.621094 137.4375 C 236.753906 137.496094 236.886719 137.558594 237.023438 137.617188 C 236.363281 138.039062 235.707031 138.464844 235.046875 138.886719 C 235.046875 138.886719 235.152344 138.984375 235.152344 138.984375 C 231.507812 137.605469 228.203125 138.699219 227.046875 142.769531 C 225.675781 147.609375 225.246094 152.738281 224.675781 157.773438 C 224.367188 160.496094 224.621094 163.28125 224.621094 166.039062 C 224.214844 166.070312 223.808594 166.101562 223.40625 166.132812 C 223.027344 162.988281 222.648438 159.84375 222.269531 156.695312 C 221.863281 153.371094 221.53125 150.035156 221.027344 146.722656 C 220.285156 141.828125 217.574219 138.722656 212.554688 137.90625 C 208.632812 137.269531 204.699219 136.675781 200.328125 135.992188 C 204.785156 135.398438 208.785156 134.855469 212.792969 134.335938 C 217.394531 133.742188 220.222656 131.097656 220.984375 126.609375 C 222.023438 120.535156 222.746094 114.40625 224.117188 108.199219 C 224.351562 111.125 224.496094 114.058594 224.84375 116.96875 C 225.285156 120.621094 225.722656 124.292969 226.480469 127.886719 C 227.046875 130.578125 228.597656 132.730469 231.5 133.496094 C 231.902344 133.617188 232.304688 133.738281 231.886719 133.613281 C 232.285156 133.613281 231.824219 133.613281 231.367188 133.613281 Z M 231.367188 133.613281 " fill-opacity="1" fill-rule="nonzero"/></g></g></g></g></g><g clip-path="url(#3538c989ef)"><g mask="url(#f4456270de)"><g transform="matrix(1, 0, 0, 1, 734, 0.000000000000055289)"><g clip-path="url(#8ecadeffbf)"><g clip-path="url(#41ff635412)"><path fill="#100f0d" d="M 42.769531 6.089844 C 41.839844 40.039062 41.085938 40.789062 7.074219 41.714844 C 41.085938 42.644531 41.839844 43.394531 42.769531 77.34375 C 43.699219 43.394531 44.453125 42.644531 78.464844 41.714844 C 44.453125 40.789062 43.699219 40.039062 42.769531 6.089844 " fill-opacity="1" fill-rule="nonzero"/></g><g clip-path="url(#c2e2f2cb38)"><path fill="#100f0d" d="M 10.714844 47.730469 C 10.449219 57.523438 10.230469 57.738281 0.421875 58.007812 C 10.230469 58.273438 10.449219 58.492188 10.714844 68.28125 C 10.984375 58.492188 11.199219 58.273438 21.011719 58.007812 C 11.199219 57.738281 10.984375 57.523438 10.714844 47.730469 " fill-opacity="1" fill-rule="nonzero"/></g><g clip-path="url(#6fd8d7b741)"><path fill="#100f0d" d="M 67.246094 31.371094 C 67.652344 16.496094 67.984375 16.167969 82.886719 15.761719 C 67.984375 15.355469 67.652344 15.027344 67.246094 0.152344 C 66.839844 15.027344 66.511719 15.355469 51.609375 15.761719 C 66.511719 16.167969 66.839844 16.496094 67.246094 31.371094 " fill-opacity="1" fill-rule="nonzero"/></g></g></g></g></g><g mask="url(#3eb8b5d2ff)"><g transform="matrix(1, 0, 0, 1, 0, 121)"><g clip-path="url(#36e92ecd2e)"><g clip-path="url(#0053d694b7)"><path fill="#231f20" d="M 36.574219 38.769531 C 36.679688 39.765625 36.832031 40.753906 37.023438 41.738281 C 37.214844 42.722656 37.449219 43.695312 37.722656 44.65625 C 37.996094 45.621094 38.308594 46.570312 38.664062 47.507812 C 39.015625 48.445312 39.410156 49.363281 39.839844 50.265625 C 40.273438 51.171875 40.742188 52.054688 41.25 52.917969 C 41.753906 53.78125 42.296875 54.621094 42.875 55.4375 C 43.449219 56.257812 44.0625 57.046875 44.703125 57.8125 C 45.347656 58.578125 46.023438 59.316406 46.730469 60.023438 C 47.433594 60.734375 48.171875 61.410156 48.933594 62.054688 C 49.695312 62.703125 50.484375 63.316406 51.300781 63.894531 C 52.113281 64.472656 52.953125 65.015625 53.8125 65.523438 C 54.671875 66.03125 55.554688 66.503906 56.453125 66.9375 C 57.355469 67.367188 58.273438 67.761719 59.207031 68.117188 C 60.140625 68.472656 61.085938 68.789062 62.046875 69.0625 C 63.007812 69.339844 63.976562 69.570312 64.957031 69.765625 C 65.933594 69.957031 66.921875 70.105469 67.914062 70.214844 C 80.574219 71.480469 93.265625 72.0625 105.988281 71.957031 C 93.265625 71.851562 80.574219 72.433594 67.914062 73.699219 C 66.921875 73.808594 65.9375 73.957031 64.957031 74.152344 C 63.976562 74.34375 63.007812 74.578125 62.046875 74.851562 C 61.085938 75.125 60.140625 75.441406 59.207031 75.796875 C 58.273438 76.152344 57.355469 76.546875 56.453125 76.980469 C 55.554688 77.414062 54.671875 77.882812 53.8125 78.390625 C 52.953125 78.898438 52.113281 79.441406 51.300781 80.019531 C 50.484375 80.601562 49.695312 81.210938 48.933594 81.859375 C 48.171875 82.503906 47.4375 83.179688 46.730469 83.890625 C 46.023438 84.597656 45.347656 85.335938 44.703125 86.101562 C 44.0625 86.867188 43.449219 87.660156 42.875 88.476562 C 42.296875 89.292969 41.753906 90.132812 41.25 90.996094 C 40.742188 91.859375 40.273438 92.742188 39.84375 93.648438 C 39.410156 94.550781 39.015625 95.46875 38.664062 96.40625 C 38.308594 97.34375 37.996094 98.292969 37.722656 99.257812 C 37.449219 100.21875 37.214844 101.195312 37.023438 102.175781 C 36.832031 103.160156 36.679688 104.148438 36.574219 105.144531 C 35.3125 117.847656 34.734375 130.582031 34.835938 143.34375 C 34.941406 130.582031 34.363281 117.847656 33.101562 105.144531 C 32.992188 104.148438 32.84375 103.160156 32.652344 102.175781 C 32.460938 101.195312 32.226562 100.21875 31.953125 99.257812 C 31.679688 98.292969 31.363281 97.34375 31.011719 96.40625 C 30.65625 95.46875 30.261719 94.550781 29.832031 93.648438 C 29.398438 92.742188 28.929688 91.859375 28.425781 90.996094 C 27.917969 90.132812 27.378906 89.292969 26.800781 88.476562 C 26.222656 87.65625 25.613281 86.867188 24.96875 86.101562 C 24.324219 85.335938 23.652344 84.597656 22.945312 83.890625 C 22.238281 83.179688 21.503906 82.503906 20.742188 81.859375 C 19.976562 81.210938 19.1875 80.597656 18.375 80.019531 C 17.558594 79.441406 16.722656 78.898438 15.859375 78.390625 C 15 77.882812 14.121094 77.410156 13.21875 76.980469 C 12.320312 76.546875 11.402344 76.152344 10.46875 75.796875 C 9.535156 75.441406 8.589844 75.125 7.628906 74.851562 C 6.667969 74.574219 5.699219 74.34375 4.71875 74.148438 C 3.738281 73.957031 2.753906 73.808594 1.761719 73.699219 C -10.898438 72.433594 -23.589844 71.851562 -36.3125 71.957031 C -23.589844 72.0625 -10.898438 71.480469 1.761719 70.214844 C 2.753906 70.105469 3.738281 69.957031 4.71875 69.761719 C 5.699219 69.570312 6.667969 69.335938 7.628906 69.0625 C 8.589844 68.789062 9.535156 68.472656 10.46875 68.117188 C 11.402344 67.761719 12.320312 67.367188 13.21875 66.933594 C 14.121094 66.5 15 66.03125 15.859375 65.523438 C 16.722656 65.015625 17.558594 64.472656 18.375 63.894531 C 19.1875 63.3125 19.976562 62.703125 20.742188 62.054688 C 21.503906 61.410156 22.238281 60.734375 22.945312 60.023438 C 23.648438 59.316406 24.324219 58.578125 24.96875 57.8125 C 25.613281 57.046875 26.222656 56.257812 26.800781 55.4375 C 27.378906 54.621094 27.917969 53.78125 28.425781 52.917969 C 28.929688 52.054688 29.398438 51.171875 29.832031 50.265625 C 30.261719 49.363281 30.65625 48.445312 31.011719 47.507812 C 31.363281 46.570312 31.679688 45.621094 31.953125 44.65625 C 32.226562 43.695312 32.457031 42.722656 32.652344 41.738281 C 32.84375 40.753906 32.992188 39.765625 33.101562 38.769531 C 34.363281 26.066406 34.941406 13.335938 34.835938 0.570312 C 34.734375 13.335938 35.3125 26.066406 36.574219 38.769531 Z M 36.574219 38.769531 " fill-opacity="1" fill-rule="nonzero"/></g><g clip-path="url(#ff47a19bf5)"><path fill="#231f20" d="M 116.007812 91.289062 C 116.117188 92.296875 116.3125 93.289062 116.589844 94.265625 C 116.867188 95.242188 117.222656 96.191406 117.660156 97.105469 C 118.101562 98.023438 118.609375 98.894531 119.195312 99.722656 C 119.78125 100.550781 120.433594 101.324219 121.148438 102.042969 C 121.863281 102.761719 122.632812 103.414062 123.460938 104 C 124.285156 104.589844 125.15625 105.101562 126.070312 105.539062 C 126.980469 105.980469 127.925781 106.339844 128.898438 106.617188 C 129.871094 106.894531 130.863281 107.089844 131.867188 107.199219 C 138.273438 107.839844 144.695312 108.132812 151.132812 108.082031 C 144.695312 108.027344 138.273438 108.324219 131.867188 108.960938 C 130.863281 109.074219 129.871094 109.265625 128.898438 109.546875 C 127.925781 109.824219 126.980469 110.183594 126.070312 110.621094 C 125.15625 111.0625 124.285156 111.574219 123.460938 112.164062 C 122.632812 112.75 121.863281 113.402344 121.148438 114.121094 C 120.433594 114.839844 119.78125 115.613281 119.195312 116.441406 C 118.609375 117.269531 118.101562 118.140625 117.660156 119.058594 C 117.222656 119.972656 116.867188 120.917969 116.589844 121.898438 C 116.3125 122.875 116.117188 123.867188 116.007812 124.875 C 115.367188 131.304688 115.078125 137.746094 115.128906 144.207031 C 115.183594 137.746094 114.890625 131.304688 114.25 124.875 C 114.140625 123.867188 113.945312 122.875 113.667969 121.898438 C 113.390625 120.917969 113.035156 119.972656 112.597656 119.058594 C 112.160156 118.140625 111.648438 117.269531 111.0625 116.441406 C 110.476562 115.613281 109.828125 114.839844 109.109375 114.121094 C 108.394531 113.402344 107.625 112.75 106.796875 112.160156 C 105.972656 111.574219 105.101562 111.0625 104.1875 110.621094 C 103.277344 110.183594 102.332031 109.824219 101.359375 109.546875 C 100.386719 109.265625 99.394531 109.074219 98.390625 108.960938 C 91.984375 108.324219 85.5625 108.027344 79.125 108.082031 C 85.5625 108.132812 91.984375 107.839844 98.390625 107.199219 C 99.394531 107.089844 100.386719 106.894531 101.359375 106.617188 C 102.332031 106.339844 103.277344 105.980469 104.1875 105.539062 C 105.101562 105.101562 105.972656 104.589844 106.796875 104 C 107.625 103.414062 108.394531 102.761719 109.109375 102.042969 C 109.828125 101.324219 110.476562 100.550781 111.0625 99.722656 C 111.648438 98.894531 112.160156 98.023438 112.597656 97.105469 C 113.035156 96.191406 113.390625 95.242188 113.667969 94.265625 C 113.945312 93.289062 114.140625 92.296875 114.25 91.289062 C 114.890625 84.859375 115.183594 78.417969 115.132812 71.957031 C 115.078125 78.414062 115.371094 84.859375 116.007812 91.289062 Z M 116.007812 91.289062 " fill-opacity="1" fill-rule="nonzero"/></g><path fill="#231f20" d="M 88.941406 20 C 89.011719 20.617188 89.128906 21.222656 89.296875 21.820312 C 89.46875 22.414062 89.6875 22.992188 89.953125 23.550781 C 90.21875 24.109375 90.53125 24.644531 90.890625 25.148438 C 91.246094 25.65625 91.644531 26.128906 92.082031 26.566406 C 92.519531 27.003906 92.988281 27.402344 93.492188 27.761719 C 93.996094 28.121094 94.527344 28.433594 95.085938 28.703125 C 95.644531 28.96875 96.21875 29.1875 96.8125 29.359375 C 97.40625 29.527344 98.011719 29.648438 98.625 29.714844 C 102.539062 30.105469 106.460938 30.285156 110.390625 30.253906 C 106.460938 30.222656 102.539062 30.398438 98.625 30.789062 C 98.011719 30.859375 97.40625 30.976562 96.8125 31.148438 C 96.21875 31.316406 95.644531 31.535156 95.085938 31.804688 C 94.527344 32.074219 93.996094 32.386719 93.492188 32.746094 C 92.988281 33.101562 92.519531 33.5 92.082031 33.941406 C 91.644531 34.378906 91.246094 34.851562 90.890625 35.355469 C 90.53125 35.863281 90.21875 36.394531 89.953125 36.953125 C 89.6875 37.515625 89.46875 38.09375 89.296875 38.6875 C 89.128906 39.285156 89.011719 39.890625 88.941406 40.507812 C 88.554688 44.433594 88.375 48.367188 88.40625 52.308594 C 88.4375 48.367188 88.261719 44.433594 87.871094 40.507812 C 87.804688 39.890625 87.683594 39.285156 87.515625 38.6875 C 87.34375 38.09375 87.128906 37.515625 86.859375 36.953125 C 86.59375 36.394531 86.28125 35.863281 85.921875 35.355469 C 85.566406 34.851562 85.167969 34.378906 84.730469 33.941406 C 84.292969 33.5 83.824219 33.101562 83.320312 32.746094 C 82.816406 32.386719 82.285156 32.074219 81.726562 31.804688 C 81.167969 31.535156 80.59375 31.316406 80 31.148438 C 79.40625 30.976562 78.800781 30.859375 78.1875 30.789062 C 74.273438 30.398438 70.351562 30.222656 66.421875 30.253906 C 70.351562 30.285156 74.273438 30.105469 78.1875 29.714844 C 78.800781 29.648438 79.40625 29.527344 80 29.359375 C 80.59375 29.1875 81.167969 28.96875 81.726562 28.699219 C 82.28125 28.433594 82.8125 28.121094 83.316406 27.761719 C 83.824219 27.402344 84.292969 27.003906 84.730469 26.566406 C 85.167969 26.128906 85.5625 25.65625 85.921875 25.148438 C 86.277344 24.644531 86.589844 24.109375 86.855469 23.550781 C 87.125 22.992188 87.34375 22.414062 87.511719 21.816406 C 87.679688 21.222656 87.800781 20.617188 87.867188 20 C 88.257812 16.074219 88.4375 12.136719 88.40625 8.191406 C 88.375 12.136719 88.554688 16.074219 88.941406 20 Z M 88.941406 20 " fill-opacity="1" fill-rule="nonzero"/></g></g></g><g mask="url(#5c3d540df7)"><g transform="matrix(1, 0, 0, 1, 129, 26)"><g clip-path="url(#1f361108d1)"><g clip-path="url(#761d52e8e9)"><path fill="#231f20" d="M 36.769531 42.910156 C 36.878906 43.902344 37.070312 44.878906 37.347656 45.839844 C 37.621094 46.800781 37.976562 47.730469 38.410156 48.632812 C 38.839844 49.535156 39.347656 50.390625 39.925781 51.207031 C 40.503906 52.023438 41.148438 52.785156 41.855469 53.492188 C 42.566406 54.195312 43.328125 54.839844 44.144531 55.417969 C 44.960938 55.992188 45.820312 56.5 46.726562 56.929688 C 47.628906 57.363281 48.5625 57.714844 49.523438 57.988281 C 50.488281 58.265625 51.46875 58.457031 52.460938 58.5625 C 58.800781 59.195312 65.152344 59.484375 71.523438 59.429688 C 65.152344 59.378906 58.800781 59.667969 52.460938 60.296875 C 51.464844 60.40625 50.484375 60.597656 49.523438 60.871094 C 48.558594 61.144531 47.628906 61.5 46.722656 61.929688 C 45.820312 62.363281 44.960938 62.867188 44.144531 63.445312 C 43.328125 64.023438 42.5625 64.664062 41.855469 65.371094 C 41.148438 66.078125 40.503906 66.839844 39.925781 67.65625 C 39.347656 68.46875 38.839844 69.328125 38.40625 70.230469 C 37.976562 71.128906 37.621094 72.058594 37.347656 73.019531 C 37.070312 73.980469 36.878906 74.960938 36.769531 75.953125 C 36.140625 82.273438 35.851562 88.613281 35.902344 94.96875 C 35.953125 88.613281 35.664062 82.273438 35.035156 75.953125 C 34.925781 74.957031 34.734375 73.980469 34.457031 73.019531 C 34.183594 72.058594 33.828125 71.128906 33.398438 70.226562 C 32.964844 69.328125 32.457031 68.46875 31.878906 67.652344 C 31.300781 66.839844 30.65625 66.078125 29.949219 65.371094 C 29.242188 64.664062 28.476562 64.023438 27.660156 63.445312 C 26.84375 62.867188 25.984375 62.363281 25.078125 61.929688 C 24.175781 61.5 23.242188 61.144531 22.28125 60.871094 C 21.316406 60.597656 20.335938 60.40625 19.34375 60.296875 C 13.003906 59.667969 6.652344 59.378906 0.28125 59.429688 C 6.652344 59.484375 13.003906 59.195312 19.34375 58.5625 C 20.335938 58.457031 21.316406 58.265625 22.28125 57.988281 C 23.242188 57.714844 24.175781 57.363281 25.078125 56.929688 C 25.984375 56.5 26.84375 55.996094 27.660156 55.417969 C 28.476562 54.839844 29.242188 54.199219 29.949219 53.492188 C 30.65625 52.785156 31.300781 52.023438 31.878906 51.207031 C 32.457031 50.390625 32.964844 49.535156 33.398438 48.632812 C 33.828125 47.730469 34.183594 46.800781 34.457031 45.839844 C 34.734375 44.878906 34.925781 43.902344 35.035156 42.910156 C 35.664062 36.585938 35.953125 30.246094 35.902344 23.894531 C 35.851562 30.246094 36.140625 36.585938 36.769531 42.910156 Z M 36.769531 42.910156 " fill-opacity="1" fill-rule="nonzero"/></g><g clip-path="url(#c9e3c4c29d)"><path fill="#231f20" d="M 72.054688 12.449219 C 72.121094 13.054688 72.238281 13.652344 72.40625 14.238281 C 72.574219 14.824219 72.789062 15.394531 73.054688 15.941406 C 73.316406 16.492188 73.625 17.015625 73.980469 17.515625 C 74.332031 18.011719 74.726562 18.476562 75.160156 18.910156 C 75.589844 19.339844 76.058594 19.730469 76.554688 20.085938 C 77.054688 20.4375 77.578125 20.746094 78.132812 21.007812 C 78.683594 21.273438 79.253906 21.488281 79.839844 21.65625 C 80.429688 21.824219 81.027344 21.941406 81.632812 22.007812 C 85.503906 22.390625 89.382812 22.566406 93.273438 22.535156 C 89.382812 22.503906 85.503906 22.679688 81.632812 23.066406 C 81.027344 23.128906 80.429688 23.246094 79.839844 23.414062 C 79.253906 23.582031 78.683594 23.796875 78.132812 24.0625 C 77.578125 24.324219 77.054688 24.632812 76.554688 24.988281 C 76.058594 25.339844 75.589844 25.730469 75.160156 26.164062 C 74.726562 26.59375 74.332031 27.058594 73.980469 27.554688 C 73.625 28.054688 73.316406 28.578125 73.054688 29.128906 C 72.789062 29.679688 72.574219 30.246094 72.40625 30.832031 C 72.238281 31.421875 72.121094 32.015625 72.054688 32.625 C 71.667969 36.484375 71.492188 40.355469 71.523438 44.234375 C 71.554688 40.355469 71.375 36.484375 70.992188 32.625 C 70.925781 32.015625 70.808594 31.421875 70.640625 30.832031 C 70.472656 30.246094 70.257812 29.679688 69.992188 29.128906 C 69.726562 28.578125 69.417969 28.054688 69.066406 27.558594 C 68.710938 27.058594 68.320312 26.59375 67.886719 26.164062 C 67.453125 25.730469 66.988281 25.339844 66.488281 24.988281 C 65.992188 24.632812 65.464844 24.324219 64.914062 24.0625 C 64.363281 23.796875 63.792969 23.582031 63.207031 23.414062 C 62.617188 23.246094 62.019531 23.128906 61.414062 23.066406 C 57.542969 22.679688 53.664062 22.503906 49.773438 22.535156 C 53.664062 22.566406 57.542969 22.390625 61.414062 22.007812 C 62.019531 21.941406 62.617188 21.824219 63.207031 21.65625 C 63.792969 21.488281 64.363281 21.273438 64.914062 21.007812 C 65.464844 20.746094 65.992188 20.4375 66.492188 20.085938 C 66.988281 19.730469 67.457031 19.339844 67.886719 18.910156 C 68.320312 18.476562 68.714844 18.011719 69.066406 17.515625 C 69.421875 17.015625 69.730469 16.492188 69.992188 15.941406 C 70.257812 15.394531 70.472656 14.824219 70.640625 14.238281 C 70.808594 13.652344 70.925781 13.054688 70.992188 12.449219 C 71.378906 8.585938 71.554688 4.71875 71.523438 0.835938 C 71.492188 4.71875 71.667969 8.585938 72.054688 12.449219 Z M 72.054688 12.449219 " fill-opacity="1" fill-rule="nonzero"/></g></g></g></g></svg>