<svg xmlns="http://www.w3.org/2000/svg" xmlns:xlink="http://www.w3.org/1999/xlink" width="1366" zoomAndPan="magnify" viewBox="0 0 1024.5 576" height="768" preserveAspectRatio="xMidYMid meet" version="1.0"><defs><clipPath id="bad6d2fb9a"><path d="M 0 0.140625 L 1024 0.140625 L 1024 575.859375 L 0 575.859375 Z M 0 0.140625 " clip-rule="nonzero"/></clipPath><clipPath id="ba36bafe80"><path d="M 443.1875 219.1875 L 581 219.1875 L 581 357 L 443.1875 357 Z M 443.1875 219.1875 " clip-rule="nonzero"/></clipPath></defs><g clip-path="url(#bad6d2fb9a)"><path fill="#ffffff" d="M 0 0.140625 L 1024 0.140625 L 1024 575.859375 L 0 575.859375 Z M 0 0.140625 " fill-opacity="1" fill-rule="nonzero"/><path fill="#def3ff" d="M 0 0.140625 L 1024 0.140625 L 1024 575.859375 L 0 575.859375 Z M 0 0.140625 " fill-opacity="1" fill-rule="nonzero"/></g><g clip-path="url(#ba36bafe80)"><path fill="#86b8d5" d="M 450.347656 219.398438 L 443.398438 226.347656 L 449.117188 232.070312 C 445.542969 234.730469 443.1875 238.933594 443.1875 243.761719 L 443.1875 332.226562 C 443.1875 340.386719 449.773438 346.972656 457.929688 346.972656 L 564.023438 346.972656 L 573.640625 356.589844 L 580.589844 349.640625 Z M 473.847656 229.015625 L 483.675781 238.84375 L 566.058594 238.84375 C 568.808594 238.84375 570.972656 241.007812 570.972656 243.761719 L 570.972656 290.875 L 559.703125 279.605469 C 559.234375 279.132812 558.691406 278.773438 558.074219 278.523438 C 557.457031 278.273438 556.816406 278.15625 556.152344 278.164062 C 554.824219 278.1875 553.691406 278.664062 552.753906 279.605469 L 538.699219 293.65625 L 545.648438 300.609375 L 556.226562 290.03125 L 570.972656 304.773438 L 570.972656 326.140625 L 580.417969 335.570312 C 580.714844 334.488281 580.800781 333.40625 580.800781 332.226562 L 580.800781 243.761719 C 580.800781 235.601562 574.214844 229.015625 566.058594 229.015625 Z M 456.242188 239.191406 L 490.320312 273.269531 L 453.015625 310.878906 L 453.015625 243.761719 C 453.015625 241.613281 454.355469 239.875 456.242188 239.191406 Z M 531.652344 248.675781 C 526.238281 248.675781 521.824219 253.089844 521.824219 258.503906 C 521.824219 263.921875 526.238281 268.335938 531.652344 268.335938 C 537.070312 268.335938 541.484375 263.921875 541.484375 258.503906 C 541.484375 253.089844 537.070312 248.675781 531.652344 248.675781 Z M 497.269531 280.21875 L 554.191406 337.144531 L 457.929688 337.144531 C 455.179688 337.144531 453.015625 334.980469 453.015625 332.226562 L 453.015625 324.835938 Z M 497.269531 280.21875 " fill-opacity="1" fill-rule="nonzero"/></g></svg>